<svg version="1.1" xmlns="http://www.w3.org/2000/svg" xmlns:xlink="http://www.w3.org/1999/xlink" width="623.58253" height="385.82949" viewBox="0,0,623.58253,385.82949"><defs><radialGradient cx="193.23239" cy="88.4217" r="41.3314" gradientUnits="userSpaceOnUse" id="color-1"><stop offset="0" stop-color="#000000"/><stop offset="1" stop-color="#3f3f3f"/></radialGradient><radialGradient cx="334.97193" cy="175.06361" r="43.22079" gradientUnits="userSpaceOnUse" id="color-2"><stop offset="0" stop-color="#000000"/><stop offset="1" stop-color="#3f3f3f"/></radialGradient></defs><g transform="translate(71.31167,5.9565)"><g data-paper-data="{&quot;isPaintingLayer&quot;:true}" fill-rule="nonzero" stroke-linejoin="miter" stroke-miterlimit="10" stroke-dasharray="" stroke-dashoffset="0" style="mix-blend-mode: normal"><path d="M-21.60059,379.123v-149.34652h522.31467v149.34652z" data-paper-data="{&quot;index&quot;:null}" fill="#d7d0c2" stroke="#000000" stroke-width="1.5" stroke-linecap="butt"/><path d="M39.4898,253.81108l-43.92101,104.09689c0,0 0.27411,-289.05907 0.32599,-343.76347c0.00326,-3.43697 43.81175,11.12935 43.81175,11.12935z" data-paper-data="{&quot;index&quot;:null}" fill="#ededed" stroke="#646464" stroke-width="3.5" stroke-linecap="butt"/><path d="" data-paper-data="{&quot;index&quot;:null}" fill="#ededed" stroke="#646464" stroke-width="3.5" stroke-linecap="butt"/><path d="M39.50238,255.90442v-239.84712c0,0 401.58563,5.30655 401.58563,6.07625c0,42.74503 0,233.77087 0,233.77087z" fill="#f5f5f5" stroke="#646464" stroke-width="3.5" stroke-linecap="butt"/><path d="M77.84646,259.21026l-5.07652,-6.42746h13.72277c0,0 36.04749,30.30368 44.69827,39.4112c4.58051,4.82236 6.79256,9.44989 6.79256,9.44989c0,0 -6.05593,1.07184 -8.56504,-0.7348c-1.62227,-1.16809 -0.53065,-2.76306 -2.74286,-4.79257c-2.97777,-2.73185 -9.51391,-6.08812 -13.71834,-8.70753c-6.40868,-3.99269 -11.82079,-10.48217 -17.00347,-14.32037c-3.17106,-2.34843 -7.85419,-4.34076 -9.60449,-5.66699c-4.459,-3.37863 -8.50287,-8.21137 -8.50287,-8.21137z" fill="#c4bdb0" stroke="none" stroke-width="0" stroke-linecap="butt"/><path d="M48.22117,257.8352l25.40692,0.83092c0,0 14.16971,27.51547 27.61084,47.106c8.25051,12.02518 19.11799,19.96598 17.73147,19.96598c-0.10394,0 -3.21021,4.51083 -4.47129,4.56236c-0.423,0.01729 -2.90157,0.35176 -5.01744,-0.44448c-2.8094,-1.05723 -5.41611,-3.41064 -5.98404,-4.3434c-1.59789,-2.62435 -3.46348,-5.79012 -4.92845,-7.18293c-3.01815,-2.86949 -11.78375,-9.11451 -15.71661,-13.63394c-4.85961,-5.58441 -8.18021,-11.17927 -12.49832,-15.66109c-1.67691,-1.74049 -9.02989,-8.78835 -10.62958,-10.5201c-13.88237,-15.02846 -11.50351,-20.6793 -11.50351,-20.6793z" fill="#c4bdb0" stroke="none" stroke-width="0" stroke-linecap="butt"/><path d="M46.81979,245.03439c-0.03044,-2.00913 -0.13344,-5.30634 -0.18817,-8.91836c-0.18479,-12.19695 0.32579,-30.11149 0.32579,-30.11149h47.789c0,0 -0.08445,4.33859 0.57346,10.20632c0.55977,4.99246 1.84667,11.03317 2.14912,17.07906c0.2403,4.80353 -0.8555,9.29175 -0.67695,13.1743c0.08873,1.92934 8.43912,7.47853 14.76714,13.66035c1.288,1.25824 2.68357,1.29651 4.44764,2.26829c1.86281,1.02618 4.09862,2.97827 5.57971,4.03892c1.29922,0.93041 3.23173,3.26355 4.47134,5.44421c1.34092,2.35887 2.77509,4.79427 2.78062,4.97973c0.00398,0.13342 7.43737,8.96089 11.64196,13.84309c0.33482,0.38878 4.543,-1.82972 8.89543,-2.30203c1.16631,-0.12656 2.57755,-0.12186 3.85803,0.52108c1.55371,0.78012 2.90056,2.31348 3.20025,3.30592c0.2133,0.70635 0.34576,2.38368 -0.26803,3.53407c-0.71423,1.33865 -2.28305,2.12686 -3.48686,2.37686c-1.70781,0.35466 -5.69476,1.35022 -8.97779,1.48416c-1.38209,0.05639 -4.24484,0.50471 -6.09847,0.25879c-0.67491,-0.08954 -2.20281,-0.34947 -2.76319,-1.16748c-1.11334,-1.62521 -1.01448,-4.32368 -1.06847,-4.35738c-3.03734,-1.89595 -16.14952,-9.14848 -19.29233,-12.24985c-3.41364,-3.36863 -7.19648,-7.09438 -10.88139,-10.3579c-2.4741,-2.19118 -6.29036,-3.73804 -8.68426,-5.59208c-7.3401,-5.68479 -12.38999,-10.189 -15.0615,-9.21296c-3.84011,1.40299 0.97447,10.6385 8.04862,20.65353c1.45327,2.05743 6.07874,5.01755 7.40519,6.97283c1.56126,2.30143 2.26018,4.0275 2.67563,6.16763c0.24157,1.2444 0.61791,2.51212 1.39307,4.28196c0.8003,1.82721 3.09378,4.98914 5.08049,8.20245c1.90647,3.08353 3.48238,6.20569 5.42516,8.64554c0.32413,0.40706 5.32315,1.76933 7.75638,4.80535c1.46642,1.8297 3.2013,3.80596 3.81785,5.54365c0.64904,1.82927 0.13419,3.37964 -0.14189,3.62006c-0.95268,0.82963 -2.70321,2.2697 -3.33822,2.34201c-0.28063,0.03196 -2.41383,0.87564 -3.97633,0.38829c-0.59796,-0.18651 -3.7468,-2.6375 -5.65478,-5.40214c-2.28134,-3.30562 -4.18209,-7.66475 -4.62784,-7.87486c-1.92434,-0.90707 -13.60256,-10.96296 -15.21624,-12.40158c-0.98329,-0.87661 -5.13081,-5.38699 -6.48995,-7.99775c-1.07261,-2.06037 -3.78008,-7.26181 -5.22449,-8.65194c-1.33074,-1.28073 -2.86929,-2.53003 -4.31779,-3.64034c-2.12095,-1.62574 -4.04885,-2.9535 -4.84873,-3.6456c-1.31076,-1.13413 -3.85559,-3.46762 -4.80883,-4.5776c-3.34848,-3.89908 -7.05558,-8.62349 -9.95964,-12.41969c-1.44262,-1.88581 -3.41674,-3.21744 -4.34917,-6.31504c-1.00905,-3.35212 -1.64488,-8.24737 -1.68056,-10.60237z" fill="#bc8b8b" stroke="#7b5b5b" stroke-width="3.5" stroke-linecap="butt"/><path d="M75.69303,239.71926c0,0 -1.14499,0.4007 -1.55116,0.17413c-0.20917,-0.11668 -0.67433,-0.81748 -0.37327,-1.18499c0.28864,-0.35234 1.82395,0.08081 1.82395,0.08081" fill="none" stroke="#7b5b5b" stroke-width="3.5" stroke-linecap="round"/><path d="M234.56379,88.4217c0,3.03495 1.53389,10.30046 -0.83419,15.67427c-1.28796,2.92274 -5.17306,4.30337 -7.77251,6.39637c-3.75199,3.02099 -7.64246,8.17479 -13.69403,8.77631c-4.64471,0.46167 -11.23608,-3.32199 -15.92789,-3.32199c-3.68572,0 -11.79616,-0.10706 -16.87452,-0.64507c-8.40922,-0.89089 -14.11347,-2.74248 -18.93458,-5.61979c-4.40716,-2.63026 0.81308,-1.40565 -0.27856,-4.76649c-1.45939,-4.49304 -0.24671,-7.90631 -2.00279,-8.52849c-1.80819,-0.64065 -6.39979,-7.54661 -3.69473,-8.95123c1.72805,-0.89729 1.79381,-3.90842 3.80469,-4.88289c1.76996,-0.85772 -0.36466,-16.84502 1.75282,-18.0746c3.84456,-2.23245 3.98801,-8.22796 13.8936,-7.94844c5.80122,0.1637 15.38747,-1.97513 18.23606,-1.97513c9.96795,0 17.31158,5.81119 25.19228,10.52682c6.04618,3.61789 15.2348,5.73694 18.22555,10.89609c2.03796,3.51556 -1.0912,10.41316 -1.0912,12.44425z" fill="url(#color-1)" stroke="#646464" stroke-width="3.5" stroke-linecap="butt"/><path d="M81.10181,181.78097c0,0 -0.6169,-6.0146 0.08956,-12.41237c0.31273,-2.83212 0.56743,-8.91064 0.62592,-15.37762c0.04324,-4.78163 -0.02078,-10.23569 -0.24795,-12.35661c-0.71174,-6.6451 -0.46753,-12.66755 -0.46753,-12.66755h38.11238c0,0 -0.62551,5.81432 -0.01077,12.40991c0.26485,2.84159 -0.61742,9.93589 -0.81608,16.11465c-0.13576,4.22247 0.47217,7.96328 0.30714,9.84079c-0.63079,7.17642 0.51972,14.44879 0.51972,14.44879z" fill="#ffffff" stroke="#505050" stroke-width="1" stroke-linecap="butt"/><path d="M106.93403,163.20281c0,0 -0.28996,2.66472 -1.99669,3.78765c-1.19845,0.7885 -3.40366,0.57507 -4.16776,0.57776c-1.48981,0.00526 -3.19765,-0.88678 -3.88639,-1.26799c-1.407,-0.77876 -2.8428,-2.09365 -3.41338,-3.00234c-0.23869,-0.38013 -0.32051,-1.49112 -0.63147,-3.0585c-0.16073,-0.81017 -0.65802,-1.70249 -0.68997,-2.76262c-0.14334,-4.75614 0.65275,-11.19696 1.03236,-13.14748c0.25285,-1.29925 0.56353,-3.5704 1.82591,-5.18798c1.2049,-1.54392 3.34172,-2.46069 4.46094,-2.67099c0.28396,-0.05335 2.13217,-0.44143 4.39903,-0.10267c1.99218,0.29771 4.3827,1.27282 5.28821,1.93447c2.14848,1.56988 2.75008,3.8577 2.66379,6.10961c-0.05125,1.33767 -0.71849,4.42897 -1.51301,7.70107c-0.82843,3.41173 -1.79525,7.02004 -2.3465,9.04204c-0.27451,1.0069 -0.87176,1.75609 -0.87176,1.75609" fill="none" stroke="#a8a8a8" stroke-width="0.5" stroke-linecap="round"/><path d="M95.03141,151.48645c0,0 1.58549,2.76899 3.0755,3.65123c0.71092,0.42093 2.34754,1.38574 3.88504,1.04064c1.61257,-0.36195 4.22441,-2.78323 5.22172,-3.92458c0.02968,-0.03397 0.12105,3.41527 -1.32657,5.9327c-0.19506,0.33922 -0.61425,0.97027 -1.33126,1.4412c-0.59986,0.39399 -1.48487,0.65841 -1.88762,0.71348c-1.94537,0.26596 -4.82783,0.14965 -6.14736,-1.15617c-2.4723,-2.44661 -1.6239,-7.67031 -1.6239,-7.67031" fill="none" stroke="#a8a8a8" stroke-width="0.5" stroke-linecap="round"/><path d="M106.88713,152.75958c0,0 -0.91648,2.77701 -2.61733,4.56803c-1.14835,1.20923 -3.19465,1.12837 -4.00959,1.09644c-0.8185,-0.03206 -2.47436,-0.48408 -3.44976,-1.78944c-1.3223,-1.76962 -1.87399,-4.52832 -1.87399,-4.52832" fill="none" stroke="#a8a8a8" stroke-width="0.5" stroke-linecap="round"/><path d="M96.05263,158.61694l0.11317,-5.25819" fill="none" stroke="#a8a8a8" stroke-width="0.5" stroke-linecap="round"/><path d="M98.13795,155.27766l-0.10071,4.78656c0,0 0.07802,0.57572 0.02562,0.85195c-0.02549,0.13434 -0.22358,0.53512 -0.29255,0.76415" fill="none" stroke="#a8a8a8" stroke-width="0.5" stroke-linecap="round"/><path d="M100.33863,160.37587l0.05568,-3.97099" fill="none" stroke="#a8a8a8" stroke-width="0.5" stroke-linecap="round"/><path d="M102.75138,156.19376l-0.02784,4.00115c0,0 -0.49284,0.42128 -0.56128,0.65139c-0.03249,0.10924 -0.44167,0.35488 -0.39382,0.89665c0.06093,0.6899 0.03597,1.51261 0.03597,1.51261" fill="none" stroke="#a8a8a8" stroke-width="0.5" stroke-linecap="round"/><path d="M104.1553,159.37408l-0.0453,-4.29166" fill="none" stroke="#a8a8a8" stroke-width="0.5" stroke-linecap="round"/><path d="M105.76062,153.96083l-0.05246,4.38594" fill="none" stroke="#a8a8a8" stroke-width="0.5" stroke-linecap="round"/><path d="M86.03584,176.1733c0,0 -0.28603,-2.54258 -0.34929,-3.79326c-0.0247,-0.48839 -0.03415,-1.16402 -0.03655,-1.80174c-0.00365,-0.97131 0.00903,-1.85468 0.00903,-1.85468" fill="none" stroke="#a8a8a8" stroke-width="0.5" stroke-linecap="round"/><path d="M88.94664,169.33594c0,0 -0.16029,1.13874 -0.17486,1.88537c-0.00967,0.49498 0.25667,1.46112 0.26601,2.33335c0.01411,1.31653 -0.22304,2.53701 -0.22304,2.53701" fill="none" stroke="#a8a8a8" stroke-width="0.5" stroke-linecap="round"/><path d="M88.62635,172.43825l-2.86369,0.12247" fill="none" stroke="#a8a8a8" stroke-width="0.5" stroke-linecap="round"/><path d="M90.91542,176.80602c0,0 0.1816,-0.6145 0.19366,-1.49873c0.01038,-0.7608 -0.1537,-1.75893 -0.09877,-2.30034c0.10143,-0.99973 0.57393,-2.79339 0.57393,-2.79339c0,0 0.44134,1.29166 0.87347,2.38124c0.1142,0.28796 0.39745,0.59857 0.46983,0.82375c0.15405,0.47923 -0.00708,1.34082 0.1227,1.96469c0.15502,0.74519 0.58756,1.21867 0.58756,1.21867" fill="none" stroke="#a8a8a8" stroke-width="0.5" stroke-linecap="round"/><path d="M92.68639,174.19353l-1.60141,0.34697" fill="none" stroke="#a8a8a8" stroke-width="0.5" stroke-linecap="round"/><path d="M96.16237,176.90807c0,0 0.0433,-1.40906 -0.10184,-2.28695c-0.09828,-0.59444 -0.60635,-1.58799 -0.82662,-2.52749c-0.24666,-1.05205 -0.20194,-2.02294 -0.20194,-2.02294c0,0 1.58481,-0.65327 2.21442,-0.58702c0.29959,0.03152 0.81802,1.92836 0.44493,2.71098c-0.11915,0.24993 -0.67202,0.05393 -0.97339,0.24049c-0.53899,0.33364 -1.16826,0.54245 -1.16826,0.54245" fill="none" stroke="#a8a8a8" stroke-width="0.5" stroke-linecap="round"/><path d="M100.1718,177.14437c0,0 -0.03547,-3.66545 0.01981,-5.01346c0.01401,-0.34162 0.27572,-1.62396 0.91336,-1.9804c0.3578,-0.20001 1.19359,-0.20368 1.71536,0.31342c0.19357,0.19183 0.37014,0.75073 0.42537,0.97321c0.04641,0.18697 0.44665,0.54684 0.289,0.78182c-0.22555,0.33619 -1.09016,0.55467 -1.48964,0.81848c-0.66263,0.43759 -1.73313,0.64442 -1.73313,0.64442" fill="none" stroke="#a8a8a8" stroke-width="0.5" stroke-linecap="round"/><path d="M104.54866,170.44559c0,0 0.49239,-0.45425 0.80563,-0.55513c0.25722,-0.08284 0.69679,0.07064 0.89178,0.27925c0.51606,0.55212 1.54256,2.4526 1.54256,2.4526" fill="none" stroke="#a8a8a8" stroke-width="0.5" stroke-linecap="round"/><path d="M105.3044,177.42666c0,0 -0.04013,-1.16553 0.59,-2.31309c0.37896,-0.69017 0.94845,-1.39526 1.46783,-2.0209c0.48377,-0.58274 0.92408,-1.09656 1.12649,-1.46519c0.14692,-0.26757 0.17955,-0.59601 0.33511,-0.87932c0.32581,-0.59334 0.7438,-1.08556 0.7438,-1.08556" fill="none" stroke="#a8a8a8" stroke-width="0.5" stroke-linecap="round"/><path d="M86.67634,148.94072c0,0 -0.49262,2.26399 -0.63413,4.6049c-0.07288,1.20557 0.51562,2.55203 0.34761,3.39226c-0.57703,2.88571 -2.09197,9.24842 -2.09197,9.24842" fill="none" stroke="#e2e2e2" stroke-width="0.5" stroke-linecap="round"/><path d="M89.3298,155.77283c0,0 -0.48503,1.15676 -0.38784,2.39159c0.09227,1.17232 0.76714,2.40623 0.76273,3.1094c-0.00459,0.73238 0.40407,2.10054 0.32602,3.08811c-0.0887,1.12221 -0.66511,1.82435 -0.66511,1.82435" fill="none" stroke="#e2e2e2" stroke-width="0.5" stroke-linecap="round"/><path d="M115.67603,151.75627c0,0 0.59778,1.7916 0.37959,3.74254c-0.13774,1.23155 -1.13351,2.63656 -1.12543,3.34683" fill="none" stroke="#e2e2e2" stroke-width="0.5" stroke-linecap="round"/><path d="M94.79387,134.06975c0,0 -4.09943,0.07217 -5.80872,-0.15004c-1.38671,-0.18027 -3.68317,-1.08391 -3.68317,-1.08391" fill="none" stroke="#e2e2e2" stroke-width="0.5" stroke-linecap="round"/><path d="M112.68808,178.8364c0,0 -0.52967,-1.60341 -0.3601,-2.68543c0.16365,-1.04426 0.72738,-4.18406 0.72738,-4.18406" fill="none" stroke="#e2e2e2" stroke-width="0.5" stroke-linecap="round"/><path d="M86.64834,138.20367c0,0 1.13265,1.69008 1.41864,2.5814c0.33231,1.0357 0.4572,3.26494 0.4572,3.26494" fill="none" stroke="#e2e2e2" stroke-width="0.5" stroke-linecap="round"/><path d="M112.10222,132.26414c0,0 0.6298,2.66163 1.01019,4.15869c0.17763,0.6991 0.89276,1.69967 1.23443,2.4808c0.13306,0.30421 0.17967,0.84701 0.1883,1.38206c0.01246,0.77187 -0.0541,1.52761 -0.0541,1.52761" fill="none" stroke="#e2e2e2" stroke-width="0.5" stroke-linecap="round"/><path d="M99.70828,145.36605c0,0.63107 -0.26147,1.24466 -0.67435,1.66337c-0.42665,0.43268 -1.10314,1.01073 -1.7625,1.01073c-0.57684,0 -1.38163,-0.35176 -1.7905,-0.69294c-0.51076,-0.4262 -0.78935,-1.2242 -0.78935,-1.93688c0,-0.60965 0.38042,-1.38409 0.76879,-1.79855c0.42906,-0.45789 1.00192,-0.7737 1.68292,-0.7737c0.58132,0 1.45727,0.10654 1.86745,0.45249c0.50527,0.42615 0.69754,1.36724 0.69754,2.07548z" fill="none" stroke="#a8a8a8" stroke-width="0.5" stroke-linecap="butt"/><path d="M104.39906,143.54235c0.41017,-0.34595 0.99977,-0.80464 1.58109,-0.80464c0.681,0 1.33899,0.7015 1.76806,1.15939c0.38837,0.41446 0.70687,1.22245 0.70687,1.8321c0,0.71267 -0.3173,1.25914 -0.82805,1.68533c-0.40887,0.34118 -1.32326,0.36894 -1.9001,0.36894c-0.65935,0 -0.98631,-0.15344 -1.41296,-0.58612c-0.41288,-0.41871 -0.67435,-1.0323 -0.67435,-1.66337c0,-0.70824 0.25419,-1.56548 0.75946,-1.99164z" data-paper-data="{&quot;index&quot;:null}" fill="none" stroke="#a8a8a8" stroke-width="0.5" stroke-linecap="butt"/><path d="M105.09612,160.92828c-0.05154,-0.28119 -0.03639,-1.44423 -0.03639,-1.44423" fill="none" stroke="#a8a8a8" stroke-width="0.5" stroke-linecap="round"/><path d="M95.09761,156.66278c0,0 0.29869,1.11445 0.27692,1.5832c-0.01082,0.23299 -0.27511,0.89572 -0.32262,1.2618" fill="none" stroke="#a8a8a8" stroke-width="0.5" stroke-linecap="round"/><path d="M96.90087,145.4683l0.15252,0.25506" fill="none" stroke="#a8a8a8" stroke-width="0.5" stroke-linecap="round"/><path d="M106.00602,146.06769l0.05104,-0.30891" data-paper-data="{&quot;index&quot;:null}" fill="none" stroke="#a8a8a8" stroke-width="0.5" stroke-linecap="round"/><path d="M94.43616,150.60664l-0.52833,0.47135" fill="none" stroke="#a8a8a8" stroke-width="0.5" stroke-linecap="round"/><path d="M107.63293,151.23943l0.26194,0.33668" fill="none" stroke="#a8a8a8" stroke-width="0.5" stroke-linecap="round"/><path d="M105.93764,147.80176c0,0 0.12356,0.74657 0.116,1.08364c-0.00621,0.27654 -0.15814,0.79337 -0.15814,0.79337" fill="none" stroke="#a8a8a8" stroke-width="0.5" stroke-linecap="round"/><path d="M107.07371,149.12598c0,0 -0.20705,-0.44416 -0.22803,-0.68327c-0.02074,-0.23636 0.10284,-0.74324 0.10284,-0.74324" fill="none" stroke="#a8a8a8" stroke-width="0.5" stroke-linecap="round"/><path d="M100.03874,147.55883c0,0 -0.33108,0.60856 -0.60059,0.86201c-0.35533,0.33415 -1.34605,0.96859 -1.34605,0.96859" fill="none" stroke="#a8a8a8" stroke-width="0.5" stroke-linecap="round"/><path d="M105.164,149.16574c0,0 -0.58598,-0.24653 -0.85638,-0.53872c-0.32719,-0.35355 -0.96908,-1.43378 -0.96908,-1.43378" fill="none" stroke="#a8a8a8" stroke-width="0.5" stroke-linecap="round"/><path d="M100.56462,151.78067l0.45977,-2.21695" fill="none" stroke="#a8a8a8" stroke-width="0.5" stroke-linecap="round"/><path d="M102.18841,151.8552l-0.18364,-2.29385" fill="none" stroke="#a8a8a8" stroke-width="0.5" stroke-linecap="round"/><path d="M94.97773,204.57533c0,3.3513 -10.80834,4.92559 -24.2096,4.92559c-7.24728,0 -13.51086,-0.16714 -17.96456,-1.07157c-3.78182,-0.76799 -5.80105,-2.37521 -5.80105,-3.91416c0,-2.1178 0.10603,-5.019 6.36728,-6.45859c3.64686,-0.83848 10.64442,-1.29172 15.57699,-1.29172c5.78283,0 14.8103,0.46688 19.20546,1.56629c5.79028,1.44839 6.82549,4.33899 6.82549,6.24416z" fill="#d73a3a" stroke="#8f2727" stroke-width="3.5" stroke-linecap="butt"/><path d="M485.29445,358.22505l-44.3844,-104.09688c0,0 -0.14002,-146.1062 -0.22664,-236.49584c-0.00331,-3.46088 44.74502,-3.22264 44.74502,-3.22264z" data-paper-data="{&quot;index&quot;:null}" fill="#ededed" stroke="#646464" stroke-width="3.5" stroke-linecap="butt"/><path d="M300.3207,203.73698c0,0 -2.31958,-4.74883 -4.59985,-9.8002c-1.07384,-2.37881 -3.82629,-3.36875 -3.96709,-6.24109c-0.09671,-1.9729 2.50293,-4.08799 3.74871,-6.24716c1.7582,-3.04728 0.67011,-6.15159 0.75834,-8.18909c0.11361,-2.62369 3.65781,-6.05514 3.13348,-9.59894c-0.36501,-2.46696 -3.24774,-4.9415 -2.89085,-7.23083c0.51322,-3.29211 5.71886,-2.88384 10.70529,-5.67366c3.15908,-1.76745 5.52389,-5.06402 8.28818,-7.17487c1.80474,-1.37813 4.09364,-2.06974 5.80023,-2.12624c3.57225,-0.11825 8.7507,2.2314 14.51525,2.94092c3.98004,0.48988 8.75078,-0.42205 13.06411,-0.35538c3.84949,0.05951 7.8984,1.46043 11.48005,1.36057c3.01919,-0.08417 5.66676,-1.65498 7.98079,-1.77169c3.97945,-0.2007 5.57771,1.59719 4.83728,4.71656c-0.34826,1.46717 0.20948,3.34312 -0.3065,5.44973c-0.42895,1.75125 -0.42841,4.03834 -0.18992,5.76639c0.35956,2.6053 2.05332,4.15093 3.69567,6.35373c1.58418,2.12477 1.54765,4.57307 1.7927,6.34605c0.30752,2.22501 -2.18653,4.99648 -2.79216,7.77888c-0.45501,2.09045 1.01968,4.15958 0.7645,6.16009c-0.45235,3.54628 -0.86149,6.94266 -1.19711,9.8113c-0.27194,2.32431 -0.90636,4.59806 -2.36905,6.17066c-1.59257,1.71224 -4.10364,2.63426 -6.56779,2.9386c-2.68613,0.33175 -6.18023,-0.20047 -9.46071,0.28421c-2.53247,0.37417 -5.7164,2.92366 -9.48148,3.19183c-5.16102,0.36758 -10.41082,-0.66248 -10.87255,-0.66248c-2.47406,0 -5.69843,-2.90888 -8.73862,-1.90177c-1.88057,0.62297 -4.2972,-0.64949 -6.6546,-0.50151c-2.142,0.13445 -4.21124,1.73335 -6.23995,1.42863c-2.09541,-0.31473 -4.2252,-1.42674 -5.93663,-1.78248c-5.25915,-1.09319 -8.2997,-1.44077 -8.2997,-1.44077z" fill="url(#color-2)" stroke="#646464" stroke-width="3.5" stroke-linecap="butt"/><path d="M74.95789,203.358c0,1.24147 -1.91975,2.24787 -4.28789,2.24787c-2.36814,0 -4.2879,-1.00641 -4.2879,-2.24787c0,-1.24147 1.91976,-2.24787 4.2879,-2.24787c2.36814,0 4.28789,1.00641 4.28789,2.24787z" fill="#f0eed7" stroke="#be3333" stroke-width="1.5" stroke-linecap="butt"/><g stroke-width="1.5"><g><path d="M78.71747,203.23672c-5.03336,-1.20595 -12.66895,-3.39297 -12.66895,-3.39297l1.93143,-4.29629c0,0 4.56355,1.52841 8.73565,2.72253c0.63572,0.18195 1.95899,0.6478 3.01403,0.56171c0.53082,-0.04331 4.04449,-0.74425 6.79062,-2.53382c2.01865,-1.31551 3.52859,-3.83369 3.61142,-3.99028c0.62143,-1.17475 3.72846,-7.34874 5.26187,-10.96928c0.74329,-1.75497 0.21748,-0.67834 0.41861,-2.00444c0.13119,-0.86503 2.41308,0.82067 2.74083,1.15751c0.55236,0.56766 0.66437,1.78217 0.70725,2.73023c0.08026,1.77422 -1.04973,8.97394 -5.86004,13.52469c-2.18425,2.0664 -4.56562,3.78794 -6.61342,5.02531c-2.4026,1.45176 -6.82768,1.76258 -8.06929,1.4651z" fill="#f0eed7" stroke="#b8b7a6" stroke-linecap="butt"/><path d="M93.66993,180.41889c0.37981,-0.84485 1.37259,-1.22184 2.21743,-0.84203c0.73402,0.32998 1.11488,1.12266 0.95309,1.87903c0.02035,0.30078 -0.04115,0.57077 -0.0915,0.73403c-0.02441,0.10963 -0.06025,0.21846 -0.10811,0.32493c-0.0405,0.09008 -0.08795,0.17482 -0.14146,0.25392l-0.34154,0.74474c-0.05652,0.17314 -0.11304,0.34626 -0.16956,0.5194c0.86754,0.83028 0.22763,1.97715 0.22763,1.97715l-0.19082,0.33106c-0.81136,1.21479 -1.44945,2.43567 -2.0584,3.65082c0.17327,0.4135 0.18131,0.89503 -0.01702,1.3362c-0.01962,0.04365 -0.04089,0.08604 -0.06367,0.12715l-0.81985,1.51281c0,0 -0.03025,0.05582 -0.08984,0.13986l-0.19974,0.93013c-0.02419,0.12503 -0.06309,0.24926 -0.11757,0.37045c-0.37981,0.84485 -5.5656,4.39978 -6.41045,4.01997c-0.37248,-0.16745 1.579,-2.08079 2.09976,-3.17585c0.38263,-0.80456 1.09216,-1.32622 1.10506,-1.6088l0.03808,-1.67084l0.29623,0.00675l0.00778,-0.03625l-0.18393,-0.55658c0.15026,-0.08399 0.30051,-0.16797 0.45077,-0.25196c-0.02435,-0.06078 -0.0443,-0.12365 -0.06009,-0.18847l-0.07254,-0.06622l0.04847,-0.05308c-0.21975,-1.35865 1.2097,-3.47413 2.33358,-5.04575c-0.23,-0.59086 -0.02916,-1.20606 -0.02916,-1.20606c0.22882,-0.70095 0.45764,-1.4019 0.68646,-2.10286l0.5566,-1.25777c-0.01734,-0.2646 0.02801,-0.53718 0.14431,-0.79589z" fill="#f0eed7" stroke="none" stroke-linecap="butt"/><path d="M88.79504,194.77654l-2.95147,-1.47181c0,0 0.04772,-0.97469 1.21914,-2.77365c1.32062,-2.02808 2.78758,-5.13063 3.50799,-6.73311c1.05674,-2.35062 2.92034,-7.06315 2.92034,-7.06315l2.7836,1.40399c0,0 -1.02558,3.93605 -2.02475,6.15863c-1.37313,3.0544 -5.45485,10.47912 -5.45485,10.47912z" fill="#f0eed7" stroke="none" stroke-linecap="butt"/><path d="M94.00685,177.20497c0,0 1.93939,0.7578 2.14457,1.72321c0.06127,0.28832 -0.17007,1.02946 -0.22829,1.37815c-0.09668,0.57896 -0.65208,0.30836 -0.97968,0.36807c-0.73117,0.13326 -1.55566,-1.29837 -1.82456,-0.92017c-0.31396,0.44158 0.70228,1.07102 1.27054,1.85703c0.32355,0.44754 -0.07497,1.29677 -0.80191,1.37008c-0.82582,0.08327 -1.82813,-0.34431 -1.70842,-0.19844c0.26065,0.31762 1.27172,0.58934 1.47743,1.10868c0.19521,0.49281 -0.34788,1.51969 -0.57282,1.59801c-1.32896,0.46272 -2.5628,0.06538 -2.11125,0.3282c0.66952,0.38968 1.12141,0.82535 1.30128,1.16584c0.38501,0.72881 -0.23756,1.59624 -0.642,1.66318c-1.00914,0.16702 -2.2311,-0.1745 -1.96778,0.03898c0.55836,0.45267 1.206,0.99334 1.38563,1.20667c0.35573,0.42244 0.24828,1.12866 -0.27371,1.35459c-1.26419,0.54717 -3.22123,-0.27783 -2.99218,-0.02812c0.27166,0.29616 1.66914,1.24764 1.84965,1.41326c0.37188,0.34119 -0.39534,1.54141 -0.51883,1.59361c-0.23614,0.09982 -0.6971,0.0293 -1.01803,0.06919c-0.67781,0.08424 -1.64093,-0.71561 -1.64093,-0.71561c0,0 0.21589,-0.62919 0.72232,-1.49245c0.8131,-1.386 2.15449,-3.44002 2.89579,-4.9477c0.73248,-1.48978 1.86161,-3.80193 2.74554,-5.95871c0.90863,-2.21705 1.48765,-3.97557 1.48765,-3.97557z" data-paper-data="{&quot;index&quot;:null}" fill="none" stroke="#b8b7a6" stroke-linecap="round"/></g><path d="M70.35134,158.94207c2.80786,1.26229 11.89224,6.16849 15.75604,12.06026c1.97146,1.57351 5.70104,2.35008 6.57196,3.64758c1.09606,1.63292 -0.49005,5.24099 -2.39769,9.06525c-1.41575,2.83814 -2.75317,5.85186 -4.64935,7.96775c-2.39697,2.67469 -7.27601,-3.09865 -7.79524,-1.88843c-5.34859,12.46645 -14.53785,16.45978 -25.14805,11.6899c-10.6102,-4.76988 -14.13793,-18.01886 -8.57574,-30.39148c5.56219,-12.37262 15.62788,-16.92071 26.23808,-12.15082z" fill="#f0eed7" stroke="#b8b7a6" stroke-linecap="butt"/><path d="M64.85841,177.56425c0.33774,0.15184 1.22103,0.8392 1.8503,1.74623c0.31377,0.45227 0.48789,2.41088 0.15248,3.38075c-0.46353,1.3404 -1.2084,3.02095 -2.06547,3.78492c-1.76627,1.57441 -3.96652,0.41488 -4.58402,0.13728c-2.00212,-0.90007 -2.2991,-3.29233 -1.22424,-5.68326c0.66407,-1.47717 1.70316,-2.92783 3.22012,-3.39798c0.9384,-0.29083 1.88566,-0.31193 2.65084,0.03206z" fill="#7b7a6f" stroke="none" stroke-linecap="butt"/><path d="M64.12815,170.51943c-0.65524,-1.44667 -0.00324,-3.14411 0.66083,-4.62127c1.07486,-2.39094 2.60256,-3.16765 4.60468,-2.26758c0.6175,0.2776 2.82281,0.44773 2.81759,2.81384c-0.00253,1.14813 -0.44067,2.89498 -1.13556,4.13137c-0.24874,0.44258 -1.23477,1.70816 -2.42426,2.16864c-0.6678,0.25851 -1.69144,0.16614 -2.68418,-0.42c-0.8133,-0.48019 -1.65656,-1.40199 -1.8391,-1.80499z" data-paper-data="{&quot;index&quot;:null}" fill="#7b7a6f" stroke="none" stroke-linecap="butt"/><path d="M72.93102,182.66797c-0.65474,-0.68006 -2.56592,-3.0102 -2.56592,-3.0102c0,0 -1.06767,-1.46921 -0.35863,-1.33426c0.65346,0.12437 3.10189,1.47626 4.30365,1.93735c0.57184,0.2194 0.42637,1.28503 0.1681,1.68956c-0.3049,0.47758 -1.12494,1.15613 -1.5472,0.71755z" fill="#7b7a6f" stroke="#7b7a6f" stroke-linecap="butt"/><path d="M76.58446,176.77763c-0.08794,0.36557 -0.69455,0.97287 -1.24134,0.69775c-1.14911,-0.57819 -3.76457,-1.55855 -4.30539,-1.93348c-0.58681,-0.40682 1.13865,-0.40083 1.13865,-0.40083c0,0 2.74008,0.29008 3.65131,0.39961c0.58768,0.07065 0.86059,0.80538 0.75678,1.23695z" data-paper-data="{&quot;index&quot;:null}" fill="#7b7a6f" stroke="#7b7a6f" stroke-linecap="butt"/><path d="M83.9911,191.70186c0,0 -0.58737,-0.17715 -0.97425,-0.74003c-0.18318,-0.26651 -0.23641,-0.87635 -0.31849,-1.11923c-0.09742,-0.28829 1.02222,-0.57085 1.91969,-0.47846c0.24369,0.02508 1.09244,0.62621 1.49426,0.63282c0.3388,0.00558 -0.83648,-1.11356 -1.26634,-2.4223c-0.17749,-0.54038 0.42231,-0.88903 0.97439,-0.90336c0.2788,-0.00724 1.11307,0.11831 1.82226,0.23546c0.33445,0.05525 -0.73208,-0.63204 -1.27697,-1.49768c-0.21838,-0.34694 0.01717,-1.38835 0.81785,-1.58413c0.37406,-0.09146 1.15414,0.10705 1.89,0.34916c0.4963,0.16329 -0.52931,-0.7909 -1.06533,-2.09203c-0.09073,-0.22022 0.31523,-1.00502 0.8134,-1.18611c0.52499,-0.19085 1.15611,0.22736 1.56668,0.2115c0.18856,-0.00728 -0.79654,-0.47314 -1.28239,-1.14609c-0.42768,-0.59238 -0.05702,-1.45414 0.49248,-1.50919c0.96509,-0.09669 2.51233,0.30212 2.63422,-0.22581c0.10439,-0.45215 -2.26222,-0.25989 -2.64786,-0.89523c-0.27684,-0.4561 0.19664,-1.64674 0.87854,-2.03392c0.85827,-0.48733 2.79355,1.01944 2.79355,1.01944" fill="none" stroke="#b8b7a6" stroke-linecap="round"/><path d="M53.68236,189.64434c0,0 3.32489,1.57234 4.13917,2.46707c0.67422,0.74084 0.40613,2.52727 0.40613,2.52727" fill="none" stroke="#e2e1cc" stroke-linecap="round"/><path d="M54.44295,188.62112c0,0 3.68683,1.75871 4.55273,2.83777c0.71697,0.89345 0.28074,3.18546 0.28074,3.18546" fill="none" stroke="#b8b7a6" stroke-linecap="round"/></g><path d="M-62.93103,-4.2065h606.80595l-102.87079,44.83119h-401.2691z" fill="#e1e1e1" stroke="#646464" stroke-width="3.5" stroke-linecap="butt"/><g><path d="M46.04781,263.72224c0,1.71968 -1.44121,3.11376 -3.21905,3.11376c-1.77783,0 -3.21905,-1.39408 -3.21905,-3.11376c0,-1.71968 1.44122,-3.11376 3.21905,-3.11376c1.77783,0 3.21905,1.39408 3.21905,3.11376z" fill="#ffffff" stroke="none" stroke-width="0" stroke-linecap="butt"/><g stroke-linecap="butt"><path d="M44.01983,265.38156c0,0.6582 -0.52686,1.19178 -1.17677,1.19178c-0.64991,0 -1.17677,-0.53358 -1.17677,-1.19178c0,-0.6582 0.52686,-1.19178 1.17677,-1.19178c0.64992,0 1.17677,0.53357 1.17677,1.19178z" fill="#8a5d3c" stroke="#5a3c27" stroke-width="0.5"/><path d="M42.92332,265.37395l-0.07961,-0.87162c0,0 0.41782,0.015 0.58334,0.1741c0.06551,0.06297 0.21457,0.2292 0.2815,0.38049c0.08058,0.18216 0.07355,0.34738 0.07355,0.34738z" fill="#ffffff" stroke="none" stroke-width="0"/></g><path d="M42.64078,260.616c0,0 0.0093,0.48539 0.16124,0.71172c0.1119,0.16668 0.46054,0.31755 0.43571,0.38291c-0.01917,0.05046 -0.30879,-0.40967 -0.48492,-0.36313c-0.24134,0.06378 -0.35838,0.35681 -0.35838,0.35681" fill="none" stroke="#910000" stroke-width="0.25" stroke-linecap="round"/><path d="M44.42882,261.05213c0,0 -0.08569,0.09008 -0.05344,0.27765c0.01778,0.10343 0.13287,0.27854 0.17321,0.3855c0.02998,0.07948 0.08835,0.01551 0.18803,0.16915c0.08803,0.13568 0.56568,0.36811 0.59582,0.53899c0.01074,0.06088 -0.398,-0.38049 -0.55126,-0.25183c-0.23232,0.19504 -0.23558,0.30362 -0.24306,0.32012c-0.01238,0.02729 0.11357,0.02657 0.08967,-0.16364c-0.02877,-0.22897 0.14955,-0.51295 0.05001,-0.49398c-0.12069,0.02299 -0.46486,0.21708 -0.66344,0.08374c-0.21232,-0.14256 -0.27552,-0.61403 -0.27552,-0.61403" fill="none" stroke="#910000" stroke-width="0.25" stroke-linecap="round"/><path d="M39.89485,262.9352c0,0 0.45919,-0.32845 0.65562,-0.40577c0.07476,-0.02943 0.45342,-0.35412 0.57322,-0.25826c0.05448,0.04359 -0.32972,-0.07537 -0.36185,0.13182c-0.03748,0.24169 0.37468,0.58849 0.37468,0.58849" fill="none" stroke="#910000" stroke-width="0.25" stroke-linecap="round"/><path d="M41.21133,261.32821c0,0 0.55318,0.04156 0.67339,0.15312c0.0459,0.0426 -0.28285,0.28071 -0.26441,0.52772c0.01425,0.19086 0.35564,0.20725 0.35564,0.20725" fill="none" stroke="#910000" stroke-width="0.25" stroke-linecap="round"/><path d="M46.06474,263.78713c0,1.71968 -1.44121,3.11376 -3.21904,3.11376c-1.77783,0 -3.21905,-1.39408 -3.21905,-3.11376c0,-1.71968 1.44122,-3.11375 3.21905,-3.11375c1.77783,0 3.21904,1.39407 3.21904,3.11375z" fill="none" stroke="#494949" stroke-width="0.5" stroke-linecap="butt"/><path d="M40.28569,263.5695c0,0 0.01155,-0.3522 0.09231,-0.51909c0.09021,-0.1864 0.42374,-0.54729 0.42374,-0.54729" fill="none" stroke="#910000" stroke-width="0.25" stroke-linecap="round"/></g></g></g></svg>