<svg version="1.1" xmlns="http://www.w3.org/2000/svg" xmlns:xlink="http://www.w3.org/1999/xlink" width="61.00246" height="57.21835" viewBox="0,0,61.00246,57.21835"><g transform="translate(-208.53843,-163.61175)"><g data-paper-data="{&quot;isPaintingLayer&quot;:true}" fill-rule="nonzero" stroke-linecap="butt" stroke-linejoin="miter" stroke-miterlimit="10" stroke-dasharray="" stroke-dashoffset="0" style="mix-blend-mode: normal"><g><path d="M268.79089,192.22093c0,15.3862 -13.32008,27.85917 -29.75123,27.85917c-16.43115,0 -29.75123,-12.47297 -29.75123,-27.85917c0,-15.3862 13.32008,-27.85918 29.75123,-27.85918c16.43115,0 29.75123,12.47298 29.75123,27.85918z" fill="#f0f0f0" stroke="#434343" stroke-width="1.5"/><path d="M261.07385,192.22093c0,11.39524 -9.86505,20.6329 -22.03419,20.6329c-12.16914,0 -22.03419,-9.23766 -22.03419,-20.6329c0,-11.39524 9.86504,-20.6329 22.03419,-20.6329c12.16914,0 22.03419,9.23766 22.03419,20.6329z" fill="#ed0000" stroke="#ba0000" stroke-width="2.5"/><path d="M262.9503,192.22093c0,12.36568 -10.70517,22.39003 -23.91065,22.39003c-13.20548,0 -23.91064,-10.02435 -23.91064,-22.39003c0,-12.36568 10.70516,-22.39003 23.91064,-22.39003c13.20548,0 23.91065,10.02435 23.91065,22.39003z" fill="none" stroke="#5d0000" stroke-width="1.5"/></g></g></g></svg>
