<svg version="1.1" xmlns="http://www.w3.org/2000/svg" xmlns:xlink="http://www.w3.org/1999/xlink" width="107.21474" height="128.79038" viewBox="0,0,107.21474,128.79038"><defs><radialGradient cx="219.63805" cy="156.37433" r="15.52301" gradientUnits="userSpaceOnUse" id="color-1"><stop offset="0" stop-color="#000000"/><stop offset="1" stop-color="#000000" stop-opacity="0"/></radialGradient><radialGradient cx="259.93107" cy="157.78892" r="15.52301" gradientUnits="userSpaceOnUse" id="color-2"><stop offset="0" stop-color="#000000"/><stop offset="1" stop-color="#000000" stop-opacity="0"/></radialGradient><radialGradient cx="241.06761" cy="205.80609" r="33.04513" gradientUnits="userSpaceOnUse" id="color-3"><stop offset="0" stop-color="#000000"/><stop offset="1" stop-color="#000000" stop-opacity="0"/></radialGradient></defs><g transform="translate(-186.89263,-115.10856)"><g data-paper-data="{&quot;isPaintingLayer&quot;:true}" fill-rule="nonzero" stroke-linejoin="miter" stroke-miterlimit="10" stroke-dasharray="" stroke-dashoffset="0" style="mix-blend-mode: normal"><g><path d="M206.77105,225.92117v-39.10156h67.86831v39.10156z" fill="#181818" stroke="#000000" stroke-width="2" stroke-linecap="butt"/><path d="M191.73154,165.27672l13.85288,5.79782c0,0 -2.60425,23.72558 0.52722,36.73366c1.27089,5.27927 8.19333,7.29871 9.30156,7.57362c6.05119,1.50104 23.29382,2.36396 36.47753,1.98421c2.25005,-0.06482 8.3476,-0.0839 14.09461,-0.50222c3.40433,-0.24779 9.21081,-6.53754 9.48224,-13.31648c0.42309,-10.56647 0.85091,-24.62723 1.11273,-27.58529c0.21078,-2.38134 3.0771,-3.49161 3.0771,-3.49161c0,0 9.30384,-13.79915 10.49935,-3.61801c0.10128,0.86253 -0.94485,23.25743 -1.99012,36.65891c-0.20054,2.57117 0.02874,8.96614 -2.66909,14.13199c-2.72525,5.21836 -7.66415,10.48328 -10.086,12.24774c-4.21471,3.07065 -13.75697,8.64337 -24.24632,10.47544c-5.82937,1.01816 -18.10727,1.80699 -27.59213,-0.54824c-3.83742,-0.95289 -8.68037,-3.34055 -12.98393,-5.86686c-2.42411,-1.42302 -6.91961,-4.23072 -10.02328,-7.74195c-3.28302,-3.71414 -5.12887,-8.16341 -5.85201,-10.62907c-1.73587,-5.91875 -2.10656,-12.20535 -2.20279,-14.61843c-0.64512,-16.17804 -0.77955,-37.68522 -0.77955,-37.68522z" fill="#eae4db" stroke="#000000" stroke-width="2" stroke-linecap="butt"/><path d="M192.83931,175.8723l-0.26172,-12.5066l11.58306,4.64356v14.96724c0,0 -1.8768,-0.04036 -3.54583,-0.78442c-0.75602,-0.33704 -3.0437,-1.3731 -4.55441,-2.64647c-2.0099,-1.69415 -3.2211,-3.6733 -3.2211,-3.6733z" fill="#d5d0c8" stroke="none" stroke-width="0" stroke-linecap="butt"/><path d="M223.04212,216.6106c-0.57488,0.93316 -1.84269,1.23764 -2.91388,1.23764c-0.97135,0 -2.15809,-0.38048 -2.74038,-1.16967c-0.46869,-0.63521 -0.41442,-2.06662 -0.41442,-2.96436c0,-1.13342 0.04819,-2.18854 0.75483,-2.85707c0.54844,-0.51888 1.65348,-0.78797 2.41959,-0.78797c1.15313,0 2.23134,0.46503 2.78731,1.52112c0.28931,0.54957 0.38712,1.4349 0.38712,2.12392c0,0.78311 0.08585,2.30227 -0.28017,2.89639z" fill="#f8f8f8" stroke="#000000" stroke-width="2" stroke-linecap="butt"/><path d="M229.69438,218.91102c-0.57489,0.93315 -1.8427,1.23763 -2.91389,1.23763c-0.97136,0 -2.15809,-0.38047 -2.74038,-1.16966c-0.46868,-0.63521 -0.41442,-2.06663 -0.41442,-2.96437c0,-1.13342 0.0482,-2.18854 0.75484,-2.85707c0.54844,-0.51887 1.65348,-0.78796 2.41959,-0.78796c1.15313,0 2.23134,0.46503 2.78731,1.52112c0.28931,0.54956 0.38712,1.43489 0.38712,2.12391c0,0.78311 0.08585,2.30228 -0.28017,2.8964z" fill="#f8f8f8" stroke="#000000" stroke-width="2" stroke-linecap="butt"/><path d="M259.56803,215.92373c0,0.78311 0.08585,2.30227 -0.28017,2.89639c-0.57488,0.93316 -1.84269,1.23764 -2.91388,1.23764c-0.97135,0 -2.15809,-0.38048 -2.74038,-1.16967c-0.46868,-0.63521 -0.41442,-2.06662 -0.41442,-2.96436c0,-1.13342 0.0482,-2.18854 0.75484,-2.85707c0.54844,-0.51888 1.65348,-0.78797 2.41959,-0.78797c1.15313,0 2.23134,0.46503 2.78731,1.52112c0.28931,0.54957 0.38712,1.4349 0.38712,2.12392z" fill="#f8f8f8" stroke="#000000" stroke-width="2" stroke-linecap="butt"/><path d="M253.07142,217.01913c0,0.78311 0.08585,2.30228 -0.28017,2.8964c-0.57488,0.93316 -1.84269,1.23764 -2.91388,1.23764c-0.97136,0 -2.15809,-0.38048 -2.74038,-1.16967c-0.46868,-0.63521 -0.41442,-2.06663 -0.41442,-2.96437c0,-1.13342 0.0482,-2.18854 0.75484,-2.85707c0.54844,-0.51887 1.65348,-0.78796 2.41959,-0.78796c1.15312,0 2.23133,0.46503 2.7873,1.52112c0.28932,0.54956 0.38713,1.43489 0.38713,2.12391z" fill="#f8f8f8" stroke="#000000" stroke-width="2" stroke-linecap="butt"/><path d="M265.8743,214.16313c0,0.78311 0.08585,2.30227 -0.28017,2.89639c-0.57488,0.93316 -1.84269,1.23764 -2.91388,1.23764c-0.97135,0 -2.15809,-0.38048 -2.74038,-1.16967c-0.46868,-0.63521 -0.41442,-2.06662 -0.41442,-2.96436c0,-1.13342 0.0482,-2.18854 0.75484,-2.85707c0.54844,-0.51888 1.65348,-0.78797 2.41959,-0.78797c1.15313,0 2.23134,0.46503 2.78731,1.52112c0.28931,0.54957 0.38712,1.4349 0.38712,2.12392z" fill="#f8f8f8" stroke="#000000" stroke-width="2" stroke-linecap="butt"/><path d="M245.52952,217.6609c0,0.78311 0.08585,2.30228 -0.28017,2.8964c-0.57488,0.93316 -1.84269,1.23764 -2.91388,1.23764c-0.97136,0 -2.15809,-0.38048 -2.74038,-1.16967c-0.46868,-0.63521 -0.41442,-2.06663 -0.41442,-2.96437c0,-1.13342 0.0482,-2.18854 0.75484,-2.85707c0.54844,-0.51887 1.65348,-0.78796 2.41959,-0.78796c1.15312,0 2.23133,0.46503 2.7873,1.52112c0.28932,0.54956 0.38713,1.43489 0.38713,2.12391z" fill="#f8f8f8" stroke="#000000" stroke-width="2" stroke-linecap="butt"/><path d="M237.71704,217.28851c0,0.78311 0.08585,2.30228 -0.28017,2.8964c-0.57488,0.93316 -1.84269,1.23764 -2.91388,1.23764c-0.97136,0 -2.15809,-0.38048 -2.74038,-1.16967c-0.46868,-0.63521 -0.41442,-2.06663 -0.41442,-2.96437c0,-1.13342 0.0482,-2.18854 0.75484,-2.85707c0.54844,-0.51887 1.65348,-0.78796 2.41959,-0.78796c1.15312,0 2.23133,0.46503 2.7873,1.52112c0.28932,0.54956 0.38713,1.43489 0.38713,2.12391z" fill="#f8f8f8" stroke="#000000" stroke-width="2" stroke-linecap="butt"/><path d="M284.91941,182.74108l3.32377,-15.28856c0.15922,0.48721 0.28378,1.08315 0.36728,1.80182c0.09755,0.83967 -0.91005,22.64108 -1.91682,35.6874c-0.19315,2.50303 0.02768,8.72852 -2.57078,13.75748c-2.62487,5.08006 -7.38186,10.20546 -9.71451,11.92316c-4.05947,2.98927 -13.25026,8.41431 -23.35326,10.19783c-5.61467,0.99117 -17.44033,1.7591 -26.57584,-0.53372c-3.69608,-0.92763 -8.36065,-3.25201 -12.5057,-5.71138c-2.33482,-1.38531 -6.66474,-4.11859 -9.65409,-7.53678c-3.16209,-3.61571 -4.93997,-7.94707 -5.63646,-10.34739c-1.67193,-5.7619 -2.02897,-11.88189 -2.12166,-14.23102c-0.62136,-15.7493 -0.75083,-36.68652 -0.75083,-36.68652v-0.00001l0.95561,0.40424" fill="none" stroke="#724646" stroke-width="1.5" stroke-linecap="butt"/><path d="M285.58976,183.25291c-1.51071,1.27337 -3.79839,2.30944 -4.55441,2.64648c-1.66903,0.74407 -3.54583,0.78442 -3.54583,0.78442v-14.96724l11.58306,-4.64356l-0.26172,12.5066c0,0 -1.2112,1.97915 -3.2211,3.6733z" data-paper-data="{&quot;index&quot;:null}" fill="#d5d0c8" stroke="none" stroke-width="0" stroke-linecap="butt"/><path d="M292.5888,155.71836c0,13.4443 -3.50106,24.70256 -15.82615,29.30097c-0.19438,0.07252 -6.68347,0.57738 -9.20769,0.59826c-2.07488,0.01716 -1.2876,9.48055 -2.57941,10.50597c-1.37626,1.09248 -47.18169,-0.46513 -47.62202,-0.67932c-2.25014,-1.09456 -1.03634,-11.90475 -2.27137,-11.98971c-7.65169,-0.52635 -8.19422,-0.60915 -8.21849,-0.62134c-13.4383,-6.75125 -16.0205,-17.23469 -16.0205,-26.6738c0,-23.12611 19.74163,-39.66833 49.08922,-39.66833c29.34758,0 52.65642,16.10119 52.65642,39.2273z" fill="#eae4db" stroke="#000000" stroke-width="2" stroke-linecap="butt"/><path d="M219.31422,164.91951c-2.88943,0 -5.97954,-0.58048 -7.93622,-1.9832c-2.13817,-1.53284 -4.42122,-4.15852 -4.42122,-6.58058c0,-1.0386 0.8398,-4.22183 2.77764,-6.21299c1.66688,-1.71273 5.65731,-2.20383 8.0286,-1.87712c0.94481,0.13018 5.64386,0.37088 9.99934,2.96209c1.58235,0.94139 4.35043,4.11491 4.46063,6.79328c0.12012,2.91933 -2.55232,5.34347 -4.08283,6.01251c-3.68923,1.61272 -7.93278,0.88601 -8.82595,0.88601z" fill="#0a0a0a" stroke="#0a0a0a" stroke-width="2" stroke-linecap="butt"/><path d="M252.18696,163.61057c-1.53051,-0.66905 -4.20295,-3.09318 -4.08283,-6.01251c0.11021,-2.67837 2.87829,-5.85188 4.46063,-6.79327c4.35548,-2.59122 9.05453,-2.83192 9.99934,-2.9621c2.3713,-0.32671 6.36173,0.1644 8.0286,1.87712c1.93784,1.99115 2.77764,5.17439 2.77764,6.21299c0,2.42206 -2.28305,5.04774 -4.42123,6.58058c-1.95668,1.40273 -5.07352,5.57381 -7.96294,5.57381c-0.89317,0 -5.10999,-2.86391 -8.79921,-4.47662z" data-paper-data="{&quot;index&quot;:null}" fill="#000000" stroke="#0a0a0a" stroke-width="2" stroke-linecap="butt"/><path d="M249.32207,166.73193c0,0 -0.79549,-0.8623 -1.28958,-1.60915c-0.68283,-1.03215 -0.88996,-2.64249 -0.8517,-3.60046c0.03433,-0.8594 0.08921,-2.78669 0.60051,-4.09713c0.78419,-2.00981 2.56287,-4.15461 2.56287,-4.15461" fill="none" stroke="#0a0a0a" stroke-width="2" stroke-linecap="round"/><path d="M229.60949,153.05291c0,0 1.77868,2.19568 2.56287,4.25315c0.5113,1.34152 0.56618,3.31453 0.60051,4.19431c0.03826,0.98069 -0.16887,2.62922 -0.85169,3.68586c-0.49409,0.76456 -1.28958,1.64732 -1.28958,1.64732" data-paper-data="{&quot;index&quot;:null}" fill="none" stroke="#0a0a0a" stroke-width="2" stroke-linecap="round"/><path d="M237.85892,169.75715c0.09379,-0.00881 0.42174,2.41481 0.3358,4.72249c-0.06617,1.777 -0.4652,3.5063 -0.86719,3.87361c-0.66097,0.60396 -2.75066,0.94539 -3.77149,0.06766c-0.47936,-0.41217 -0.63701,-2.75751 0.43962,-4.67531c1.23586,-2.20143 3.77375,-3.98003 3.86325,-3.98844z" fill="#000000" stroke="#000000" stroke-width="2" stroke-linecap="butt"/><path d="M246.03109,174.02018c1.07663,1.9178 0.91898,4.26315 0.43962,4.67532c-1.02083,0.87774 -3.11051,0.5363 -3.77148,-0.06766c-0.40198,-0.36731 -0.80101,-2.09662 -0.86719,-3.87362c-0.08594,-2.30767 0.24201,-4.7313 0.3358,-4.72248c0.0895,0.00842 2.62738,1.78701 3.86324,3.98844z" data-paper-data="{&quot;index&quot;:null}" fill="#000000" stroke="#000000" stroke-width="2" stroke-linecap="butt"/><path d="M247.33233,160.58334c0,-1.05282 0.65079,-1.95363 1.57203,-2.32211l0.37385,-0.26286c0.73666,-0.39202 1.47331,-0.78405 2.20997,-1.17607c0,0 0.38239,-0.2035 0.91353,-0.2819c0.78295,-0.44359 1.54668,-0.92175 2.28888,-1.42824c0,0 1.61059,-1.09241 2.95356,0.07145c1.0711,0.28241 1.86088,1.25775 1.86088,2.41756c0,1.38071 -1.11929,2.5 -2.5,2.5c-0.23378,0 -0.46006,-0.03209 -0.67469,-0.0921c-0.67593,0.42337 -1.36483,0.82685 -2.06561,1.20773c-0.4444,0.69316 -1.22162,1.1525 -2.10613,1.1525c-0.00214,0 -0.00429,-0.00001 -0.00643,-0.00001c-0.19621,0.08598 -0.44171,0.17079 -0.71614,0.21545c-0.1311,0.08132 -0.34756,0.20094 -0.61892,0.29715c-0.30221,0.12965 -0.63512,0.20144 -0.9848,0.20144c-1.38071,0 -2.5,-1.11929 -2.5,-2.5z" fill="#000000" stroke="none" stroke-width="0.5" stroke-linecap="butt"/><path d="M290.54219,155.93878c0,12.76509 -3.35404,23.45457 -15.16155,27.82066c-0.18622,0.06886 -6.4028,0.54821 -8.82102,0.56804c-1.98774,0.01629 -1.23354,9.00159 -2.4711,9.9752c-1.31847,1.03728 -45.20035,-0.44163 -45.62219,-0.645c-2.15565,-1.03927 -0.99282,-11.30331 -2.17598,-11.38398c-7.33037,-0.49976 -7.85011,-0.57837 -7.87336,-0.58995c-12.87397,-6.41018 -15.34774,-16.36398 -15.34774,-25.32622c0,-21.95776 18.9126,-37.66426 47.02777,-37.66426c28.11516,0 50.44518,15.28775 50.44518,37.24551z" fill="none" stroke="#ccc7bf" stroke-width="2" stroke-linecap="butt"/><path d="M223.05383,197.76579c-0.57488,0.93316 -1.84269,1.23764 -2.91388,1.23764c-0.97135,0 -2.15809,-0.38048 -2.74038,-1.16967c-0.46869,-0.63521 -0.41442,-2.06662 -0.41442,-2.96436c0,-1.13342 0.04819,-2.18854 0.75483,-2.85707c0.54844,-0.51888 1.65348,-0.78797 2.41959,-0.78797c1.15313,0 2.23134,0.46503 2.78731,1.52112c0.28931,0.54957 0.38712,1.4349 0.38712,2.12392c0,0.78311 0.08585,2.30227 -0.28017,2.89639z" fill="#f8f8f8" stroke="#000000" stroke-width="2" stroke-linecap="butt"/><path d="M229.64459,196.00443c-0.57489,0.93315 -1.8427,1.23763 -2.91389,1.23763c-0.97136,0 -2.15809,-0.38047 -2.74038,-1.16966c-0.46868,-0.63521 -0.41442,-2.06663 -0.41442,-2.96437c0,-1.13342 0.0482,-2.18854 0.75484,-2.85707c0.54844,-0.51887 1.65348,-0.78796 2.41959,-0.78796c1.15313,0 2.23134,0.46503 2.78731,1.52112c0.28931,0.54956 0.38712,1.43489 0.38712,2.12391c0,0.78311 0.08585,2.30228 -0.28017,2.8964z" fill="#f8f8f8" stroke="#000000" stroke-width="2" stroke-linecap="butt"/><path d="M258.65679,194.50272c0,0.78311 0.08585,2.30227 -0.28017,2.89639c-0.57488,0.93316 -1.84269,1.23764 -2.91388,1.23764c-0.97135,0 -2.15809,-0.38048 -2.74038,-1.16967c-0.46868,-0.63521 -0.41442,-2.06662 -0.41442,-2.96436c0,-1.13342 0.0482,-2.18854 0.75484,-2.85707c0.54844,-0.51888 1.65348,-0.78797 2.41959,-0.78797c1.15313,0 2.23134,0.46503 2.78731,1.52112c0.28931,0.54957 0.38712,1.4349 0.38712,2.12392z" fill="#f8f8f8" stroke="#000000" stroke-width="2" stroke-linecap="butt"/><path d="M252.03774,193.34048c0,0.78311 0.08585,2.30228 -0.28017,2.8964c-0.57488,0.93316 -1.84269,1.23764 -2.91388,1.23764c-0.97136,0 -2.15809,-0.38048 -2.74038,-1.16967c-0.46868,-0.63521 -0.41442,-2.06663 -0.41442,-2.96437c0,-1.13342 0.0482,-2.18854 0.75484,-2.85707c0.54844,-0.51887 1.65348,-0.78796 2.41959,-0.78796c1.15312,0 2.23133,0.46503 2.7873,1.52112c0.28932,0.54956 0.38713,1.43489 0.38713,2.12391z" fill="#f8f8f8" stroke="#000000" stroke-width="2" stroke-linecap="butt"/><path d="M265.51037,195.94012c0,0.78311 0.08585,2.30227 -0.28017,2.89639c-0.57488,0.93316 -1.84269,1.23764 -2.91388,1.23764c-0.97135,0 -2.15809,-0.38048 -2.74038,-1.16967c-0.46868,-0.63521 -0.41442,-2.06662 -0.41442,-2.96436c0,-1.13342 0.0482,-2.18854 0.75484,-2.85707c0.54844,-0.51888 1.65348,-0.78797 2.41959,-0.78797c1.15313,0 2.23134,0.46503 2.78731,1.52112c0.28931,0.54957 0.38712,1.4349 0.38712,2.12392z" fill="#f8f8f8" stroke="#000000" stroke-width="2" stroke-linecap="butt"/><path d="M245.02577,193.04644c0,0.78311 0.08585,2.30228 -0.28017,2.8964c-0.57488,0.93316 -1.84269,1.23764 -2.91388,1.23764c-0.97136,0 -2.15809,-0.38048 -2.74038,-1.16967c-0.46868,-0.63521 -0.41442,-2.06663 -0.41442,-2.96437c0,-1.13342 0.0482,-2.18854 0.75484,-2.85707c0.54844,-0.51887 1.65348,-0.78796 2.41959,-0.78796c1.15312,0 2.23133,0.46503 2.7873,1.52112c0.28932,0.54956 0.38713,1.43489 0.38713,2.12391z" fill="#f8f8f8" stroke="#000000" stroke-width="2" stroke-linecap="butt"/><path d="M237.6612,192.83318c0,0.78311 0.08585,2.30228 -0.28017,2.8964c-0.57488,0.93316 -1.84269,1.23764 -2.91388,1.23764c-0.97136,0 -2.15809,-0.38048 -2.74038,-1.16967c-0.46868,-0.63521 -0.41442,-2.06663 -0.41442,-2.96437c0,-1.13342 0.0482,-2.18854 0.75484,-2.85707c0.54844,-0.51887 1.65348,-0.78796 2.41959,-0.78796c1.15312,0 2.23133,0.46503 2.7873,1.52112c0.28932,0.54956 0.38713,1.43489 0.38713,2.12391z" fill="#f8f8f8" stroke="#000000" stroke-width="2" stroke-linecap="butt"/><path d="M186.89263,195.89638z" fill="#ffffff" stroke="#8d8984" stroke-width="2" stroke-linecap="butt"/><path d="M291.93125,157.3159c0,3.76426 -1.72486,9.8623 -2.78281,15.60963c-0.27556,1.49705 -0.26527,14.02591 -0.99223,24.52595c-0.08735,1.2616 -0.4266,4.3023 -0.76897,7.68286c-0.12543,1.23852 -0.04023,5.0841 -0.60019,8.26366c-0.26691,1.51554 -1.87974,6.1217 -4.34572,10.07408c-1.54766,2.48052 -3.74039,4.54498 -5.18461,5.92028c-6.04861,5.75991 -15.00162,9.32011 -23.83281,11.37553c-7.63281,1.77652 -14.10026,1.68847 -18.071,1.68847c-12.12452,0 -21.4421,-6.61119 -26.078,-9.10633c-3.70776,-1.99559 -7.96274,-4.95606 -10.91136,-11.66699c-0.23905,-0.54406 -1.64919,-3.36597 -2.48886,-6.9715c-1.1948,-5.13049 -1.89213,-11.87634 -2.0554,-16.14959c-0.18944,-4.95799 -0.33826,-11.04599 -0.08884,-16.79283c0.14797,-3.4095 0.12053,-6.49168 0.00185,-9.53061c-0.3089,-7.90953 -1.42953,-14.52523 -1.42953,-16.09107c0,-21.7189 19.59517,-38.58982 47.39367,-38.58982c15.24129,0 28.7785,3.45528 38.77443,11.87367c3.41868,2.87914 6.41916,6.19601 8.65531,10.02012c3.15075,5.38816 4.80509,12.12615 4.80509,17.86445zM258.3564,192.07882c-0.64999,0 -2.14569,-0.62367 -5.52392,-1.23958c-1.87919,-0.34261 -5.25726,-1.00638 -7.6482,-1.21399c-2.09108,-0.18158 -2.84986,-1.85245 -5.17427,-1.89584c-0.64814,-0.0121 -3.20845,-0.88879 -3.85559,-0.97482c-1.01235,-0.13457 -1.53705,-0.64786 -2.58916,-0.619c-0.57965,0.01591 -1.12289,1.93101 -1.70307,1.86863c-0.87259,-0.09382 -1.78699,0.57897 -2.66852,0.54015c-1.42381,-0.06269 -2.62497,1.45441 -3.9868,1.5986c-0.39513,0.04184 -0.85293,0.66752 -2.00401,0.87858c-1.28912,0.23638 -3.24093,-0.20823 -4.98356,0.30971c-1.8886,0.56133 -3.6044,1.98816 -5.0505,3.30435c-1.11478,1.01462 -1.38548,2.29539 -2.33364,3.91027c-1.2848,2.18821 -2.09153,5.35101 -1.719,6.56762c0.70222,2.29327 -0.32612,5.39721 2.6704,7.6432c2.80847,2.10504 4.22147,6.49225 6.22725,7.2058c3.24334,1.15381 4.28802,2.94779 7.86158,3.38428c1.73064,0.21139 8.44911,-0.85403 10.36088,-0.91147c3.34971,-0.10066 9.83639,3.3676 12.99344,3.06876c3.54856,-0.33591 6.43751,-3.64749 9.01572,-4.20514c2.88009,-0.62295 6.90068,0.26224 10.29707,-2.82804c0.53348,-0.4854 1.76749,-5.96127 2.88514,-8.00933c1.23922,-2.27085 1.94745,-5.05411 1.90625,-5.98669c-0.02976,-0.67375 -0.96819,-3.22179 -2.14281,-5.15221c-1.09721,-1.8032 -2.41538,-2.99854 -2.98331,-3.51914c-3.69713,-3.38909 -8.94738,-3.72468 -9.85136,-3.72468zM260.60837,166.69823c5.52285,0 10.52856,-3.22783 10.52856,-8.75067c0,-5.52284 -5.72648,-9.58355 -11.24933,-9.58355c-5.52285,0 -10,4.47716 -10,10c0,5.52284 5.19792,8.33422 10.72078,8.33422zM220.57766,166.25029c2.83579,0 5.83429,-0.97948 7.10546,-1.88351c1.2045,-0.85662 2.03951,-2.84768 2.03951,-5.53474c0,-1.32471 -0.4171,-5.45386 -2.43289,-8.06896c-2.16177,-2.80447 -6.30989,-3.69686 -7.74717,-3.69686c-5.16929,0 -9.16651,3.90032 -9.58021,8.94831c-0.01436,0.17527 -0.16384,4.00775 1.90222,6.56013c2.00376,2.47541 6.1842,3.67562 8.71309,3.67562z" fill="#b56e6e" stroke="#724646" stroke-width="1.5" stroke-linecap="butt"/><path d="M264.18183,225.72248c0,0.75 -0.75,0.75 -0.75,0.75l-1.00888,-0.00298c-2.42184,0.42825 -4.53481,2.11001 -6.76794,3.09846c0,0 -0.68594,0.3033 -0.98924,-0.38263c-0.3033,-0.68594 0.38264,-0.98924 0.38264,-0.98924c2.42912,-1.07295 4.60395,-2.73718 7.24075,-3.2206l1.14267,-0.00299c0,0 0.75,0 0.75,0.75z" fill="#9e6060" stroke="none" stroke-width="0.5" stroke-linecap="butt"/><path d="M214.69854,221.86253c-0.43909,0.60803 -1.04712,0.16894 -1.04712,0.16894l-0.30522,-0.23189c-2.1481,-2.1402 -3.844,-4.22743 -6.75253,-5.3768c0,0 -0.69684,-0.27733 -0.41952,-0.97417c0.27732,-0.69684 0.97416,-0.41952 0.97416,-0.41952c3.10654,1.24415 4.95446,3.41801 7.25616,5.70746l0.12512,0.07887c0,0 0.60803,0.43909 0.16894,1.04712z" fill="#9e6060" stroke="none" stroke-width="0.5" stroke-linecap="butt"/><path d="M244.64886,231.09451c-0.56175,0.49694 -1.05868,-0.06481 -1.05868,-0.06481l-0.0666,-0.12536c-2.80211,-1.72172 -5.4921,-1.68119 -8.6799,-1.68089c0,0 -0.75,0 -0.75,-0.75c0,-0.75 0.75,-0.75 0.75,-0.75c3.47555,0.00034 6.40207,0.04422 9.46135,1.90053l0.40863,0.41186c0,0 0.49694,0.56174 -0.06481,1.05868z" fill="#9e6060" stroke="none" stroke-width="0.5" stroke-linecap="butt"/><path d="M218.51097,235.77235c-0.09131,0.74442 -0.83573,0.65311 -0.83573,0.65311l-0.55677,-0.06835c-1.46429,-0.19823 -2.86713,-0.39906 -4.25299,-0.91361c0,0 -0.70257,-0.26245 -0.44012,-0.96504c0.26245,-0.70258 0.96504,-0.44012 0.96504,-0.44012c1.27566,0.4798 2.5793,0.64984 3.92916,0.83231l0.5383,0.06597c0,0 0.74442,0.09131 0.65312,0.83573z" fill="#9e6060" stroke="none" stroke-width="0.5" stroke-linecap="butt"/><path d="M202.05623,222.35228c-0.4912,0.56677 -1.05796,0.07557 -1.05796,0.07557l-0.23298,-0.21456c-1.45377,-0.90077 -2.38223,-1.87977 -3.45338,-3.1889c0,0 -0.47492,-0.58047 0.10555,-1.0554c0.58047,-0.47493 1.0554,0.10555 1.0554,0.10555c0.97092,1.18678 1.76528,2.04903 3.08198,2.86336l0.42584,0.35641c0,0 0.56677,0.4912 0.07557,1.05796z" fill="#9e6060" stroke="none" stroke-width="0.5" stroke-linecap="butt"/><path d="M197.49123,203.6882c-0.52626,0.53437 -1.06063,0.0081 -1.06063,0.0081l-0.45821,-0.53698c-1.1522,-2.83162 -1.79071,-5.69144 -2.56115,-8.6589c0,0 -0.18847,-0.72593 0.53747,-0.9144c0.72593,-0.18847 0.9144,0.53747 0.9144,0.53747c0.7538,2.90371 1.37042,5.70226 2.49849,8.47008l0.12154,0.03399c0,0 0.53436,0.52626 0.00809,1.06063z" fill="#9e6060" stroke="none" stroke-width="0.5" stroke-linecap="butt"/><path d="M238.1948,171.3585c-1.12376,0.86693 -0.63327,2.20476 -1.7585,3.11791l-1.47644,-0.06461c0,0 -0.34644,0.32839 -0.74853,0.18482c-0.18613,0.13219 -0.49467,0.24695 -0.85978,-0.02497c-0.60151,-0.44798 -0.15353,-1.04949 -0.15353,-1.04949c1.1586,-1.5548 2.1178,-3.31115 3.35019,-4.76705l1.17425,-0.03042c0,0 0.74905,0.03774 0.71131,0.78679c-0.00489,0.09705 -0.02172,0.18088 -0.04731,0.25331c0.35684,0.55063 -0.17976,0.97485 -0.17976,0.97485z" fill="#9e6060" stroke="none" stroke-width="0.5" stroke-linecap="butt"/><path d="M246.16506,175.28384c-0.63617,0.39723 -1.75938,-0.29049 -1.75938,-0.29049c-0.90564,-1.45349 -1.62539,-2.5654 -3.04136,-3.60686l0.83065,-0.53483c0,0 -0.21899,-0.19772 -0.25825,-0.48248c-0.17685,-0.11592 -0.34437,-0.32653 -0.29569,-0.70395c0.09593,-0.74384 0.83977,-0.64791 0.83977,-0.64791c2.41564,0.3533 2.41294,2.35407 3.90675,3.85173l0.19557,0.17481c0,0 0.52532,0.47424 0.09467,1.01166l0.04417,0.40894c0,0 0.0705,0.65272 -0.5311,0.80275c-0.00841,0.00558 -0.017,0.01112 -0.0258,0.01662z" fill="#9e6060" stroke="none" stroke-width="0.5" stroke-linecap="butt"/><path d="M194.45126,167.61154c0.74683,0.06896 0.67786,0.81578 0.67786,0.81578l-0.02509,0.0136c0.04354,0.26957 0.08709,0.53914 0.13064,0.8087c0,0 0.03387,0.20968 -0.04602,0.42389c0.03996,3.8986 2.50594,9.83634 5.79553,12.05712l0.36846,0.12085c0,0 0.69948,0.27061 0.42887,0.97009c-0.27061,0.69948 -0.97009,0.42887 -0.97009,0.42887l-0.67663,-0.28347c-3.74931,-2.61225 -6.42699,-8.9807 -6.44651,-13.436c0,0 0,-0.09909 0.03601,-0.22522c-0.03368,-0.20854 -0.06738,-0.41708 -0.10106,-0.62562l0.01225,-0.39072c0,0 0.06896,-0.74682 0.81578,-0.67786z" fill="#9e6060" stroke="none" stroke-width="0.5" stroke-linecap="butt"/><path d="M287.70739,198.57914c0.68752,0.2997 0.38782,0.98721 0.38782,0.98721l-0.08185,0.12985c-0.62886,3.83478 -1.97349,7.74769 -3.70024,11.21847c0,0 -0.33419,0.67142 -1.00562,0.33723c-0.67143,-0.33419 -0.33724,-1.00562 -0.33724,-1.00562c1.66005,-3.33372 2.96241,-7.10657 3.56274,-10.79206l0.18716,-0.48727c0,0 0.2997,-0.68752 0.98722,-0.38782z" fill="#9e6060" stroke="none" stroke-width="0.5" stroke-linecap="butt"/><path d="M285.68747,180.74509c-0.79229,0.95262 -1.85701,1.36662 -2.57361,2.37008c0,0 -0.4434,0.60489 -1.04829,0.16148c-0.60489,-0.44341 -0.16149,-1.04829 -0.16149,-1.04829c0.76278,-1.01997 1.83824,-1.47312 2.62974,-2.44196c1.57298,-1.92543 2.75646,-4.16163 3.79475,-6.43924c-0.1005,1.04825 -0.0591,2.10819 0.13974,3.14159c-0.79838,1.51055 -1.70152,2.95863 -2.78083,4.25634z" fill="#9e6060" stroke="none" stroke-width="0.5" stroke-linecap="butt"/><path d="M290.45841,167.66684c0,0 -2.37497,5.3925 -3.79257,7.79831c-1.43219,2.43057 -4.75723,6.71162 -4.75723,6.71162" fill="none" stroke="#724646" stroke-width="1.5" stroke-linecap="round"/><path d="M192.52911,168.7451c-0.31009,-0.92699 -0.13278,-3.79497 -0.34185,-4.73239c-0.6147,-2.75625 -0.82553,-5.53867 -0.82553,-8.23582c0,-23.12611 19.74163,-39.66833 49.08922,-39.66833c29.34758,0 52.65642,16.10119 52.65642,39.2273h-0.00001c0,1.86897 -0.15441,4.65116 -0.44819,7.25412c-0.24536,2.17396 -0.58198,4.24868 -1.06339,5.31783l-0.81044,2.02678c-0.06038,3.64053 -1.02753,23.7187 -1.99394,36.10918c-0.20054,2.57117 0.02874,8.96614 -2.66909,14.13199c-2.72525,5.21836 -7.66415,10.48328 -10.086,12.24774c-4.21471,3.07065 -13.75697,8.64337 -24.24632,10.47544c-5.82937,1.01816 -18.10727,1.80699 -27.59213,-0.54824c-3.83742,-0.95289 -8.68037,-3.34055 -12.98393,-5.86686c-2.42411,-1.42302 -6.91961,-4.23072 -10.02328,-7.74195c-3.28302,-3.71414 -5.12887,-8.16341 -5.85201,-10.62907c-1.73587,-5.91875 -2.10656,-12.20535 -2.20279,-14.61843c-0.51922,-13.02068 -0.70763,-29.49338 -0.76139,-35.42716" fill="none" stroke="#000000" stroke-width="2" stroke-linecap="butt"/><path d="M288.11325,191.83349c0,0 -1.20252,5.73233 -2.05729,8.62211c-0.93686,3.16728 -3.34023,9.62551 -3.34023,9.62551" fill="none" stroke="#724646" stroke-width="1.5" stroke-linecap="round"/><path d="M216.60747,234.71147c0,0 -3.35031,-0.58393 -5.0933,-1.2609c-2.09352,-0.81312 -6.61001,-3.28465 -6.61001,-3.28465" fill="none" stroke="#724646" stroke-width="1.5" stroke-linecap="round"/><path d="M201.6338,221.0302c0,0 -2.45174,-1.85315 -3.46626,-3.28194c-1.04158,-1.46689 -2.70419,-5.40812 -2.70419,-5.40812" fill="none" stroke="#724646" stroke-width="1.5" stroke-linecap="round"/><path d="M234.75877,227.80291c0,0 2.44011,-0.63153 3.96093,-0.42046c1.60755,0.22312 5.43863,1.72503 5.43863,1.72503" fill="none" stroke="#724646" stroke-width="1.5" stroke-linecap="round"/><path d="M208.7893,215.20441c0,0 1.77438,1.02944 2.61038,1.84797c0.83758,0.82008 2.41037,3.06786 2.41037,3.06786" fill="none" stroke="#724646" stroke-width="1.5" stroke-linecap="round"/><path d="M254.90354,228.71056c0,0 2.46062,-1.84401 3.72563,-2.46132c1.20766,-0.58933 5.41115,-1.63367 5.41115,-1.63367" fill="none" stroke="#724646" stroke-width="1.5" stroke-linecap="round"/><path d="M197.75106,203.10656c0,0 -1.23842,-3.45599 -1.78815,-5.74808c-0.58954,-2.45809 -1.63806,-8.53731 -1.63806,-8.53731" fill="none" stroke="#724646" stroke-width="1.5" stroke-linecap="round"/><path d="M201.79942,182.23505c0,0 -3.97259,-4.88947 -5.08755,-7.39671c-1.14697,-2.57922 -3.88197,-17.78466 -3.88197,-17.78466" fill="none" stroke="#724646" stroke-width="1.5" stroke-linecap="round"/><path d="M242.52623,169.09045c0,0 0.93002,-0.40416 1.62287,0.22183c0.48648,0.43954 0.69953,1.36838 0.94389,1.70731c0.53912,0.74774 1.45371,2.97688 1.45371,2.97688" data-paper-data="{&quot;index&quot;:null}" fill="none" stroke="#724646" stroke-width="1.5" stroke-linecap="round"/><path d="M233.3226,173.81247c0,0 0.93924,-2.22914 1.4929,-2.97688c0.25096,-0.33892 0.46975,-1.26777 0.96935,-1.70731c0.71153,-0.62599 1.66663,-0.22183 1.66663,-0.22183" fill="none" stroke="#724646" stroke-width="1.5" stroke-linecap="round"/><path d="M241.97772,153.91887c0,6.89795 -15.10034,19.44808 -23.67346,19.44808c-8.57312,0 -19.08739,-9.30408 -19.08739,-16.20203c0,-6.89795 7.88076,-19.38703 16.45388,-19.38703c8.57312,0 26.30697,9.24303 26.30697,16.14099z" fill="url(#color-1)" stroke="none" stroke-width="0" stroke-linecap="butt"/><path d="M282.27074,155.33346c0,6.89795 -15.10034,19.44807 -23.67345,19.44807c-8.57312,0 -19.0874,-9.30408 -19.0874,-16.20203c0,-6.89796 7.88076,-19.38703 16.45388,-19.38703c8.57312,0 26.30697,9.24303 26.30697,16.14099z" fill="url(#color-2)" stroke="none" stroke-width="0" stroke-linecap="butt"/><path d="M273.27483,206.27053c0,2.85547 -1.41219,5.41642 -3.06358,7.83644c-0.91611,1.34251 0.13893,3.66274 -1.17947,4.83088c-1.02882,0.91158 -2.8956,1.90848 -4.43728,2.20105c-1.73433,0.32913 -3.18664,-0.07641 -5.06372,0.51971c-1.07698,0.34203 -2.44191,0.8853 -3.27832,1.39973c-1.59035,0.97814 -4.15679,2.22686 -6.48261,2.73681c-2.8041,0.61481 -9.11523,-2.64647 -12.09288,-2.64647c-5.35863,0 -9.34758,1.79344 -13.41039,0.76278c-9.77425,-2.47955 -16.2441,-10.18662 -16.2441,-18.10537c0,-4.03861 1.32353,-7.80997 3.69815,-10.60412c2.80845,-3.30462 7.53124,-4.15265 13.66242,-5.61137c0.80026,-0.1904 1.78861,-1.11683 3.08388,-1.53323c1.0416,-0.33484 2.41975,-0.13046 3.00835,-0.54055c1.49158,-1.0392 0.99608,-2.17765 3.06438,-2.17765c0.99158,0 1.88804,0.52988 2.93505,0.85149c1.29635,0.3982 2.76721,0.64993 4.26675,1.23321c1.59375,0.61993 3.46243,1.68224 5.64684,2.12206c2.02861,0.40846 4.39419,0.20561 5.43619,0.48764c5.6696,1.53451 9.06974,0.72962 13.48467,3.04356c4.63429,2.42891 6.96569,8.94215 6.96569,13.19338z" fill="url(#color-3)" stroke="none" stroke-width="0" stroke-linecap="butt"/></g></g></g></svg>