<svg version="1.1" xmlns="http://www.w3.org/2000/svg" xmlns:xlink="http://www.w3.org/1999/xlink" width="129.55395" height="149.47071" viewBox="0,0,129.55395,149.47071"><g transform="translate(-175.22303,-105.26465)"><g data-paper-data="{&quot;isPaintingLayer&quot;:true}" fill-rule="nonzero" stroke="none" stroke-linecap="butt" stroke-linejoin="miter" stroke-miterlimit="10" stroke-dasharray="" stroke-dashoffset="0" style="mix-blend-mode: normal"><path d="M189.53328,206.46138v-80.21863h102.36801v80.21863z" fill="#ffffff" stroke-width="0"/><path d="" fill="#7289da" stroke-width="1"/><path d="" fill="#7289da" stroke-width="1"/><path d="" fill="#7289da" stroke-width="1"/><path d="" fill="#7289da" stroke-width="1"/><path d="" fill="#7289da" stroke-width="1"/><path d="" fill="#7289da" stroke-width="1"/><path d="" fill="#7289da" stroke-width="1"/><g fill="#7289da" stroke-width="1"><path d="M261.12375,176.2689c0,4.59794 -3.32948,8.29137 -7.54683,8.29137c-4.14336,0 -7.54683,-3.69343 -7.54683,-8.29137c0,-4.59794 3.32948,-8.29136 7.54683,-8.29136c4.14336,0 7.54683,3.69342 7.54683,8.29136zM234.11793,176.2689c0,4.59794 -3.32948,8.29137 -7.54683,8.29137c-4.14336,0 -7.54683,-3.69343 -7.54683,-8.29137c0,-4.59794 3.32949,-8.29136 7.54683,-8.29136c4.21735,0 7.62082,3.69342 7.54683,8.29136z"/><path d="M304.77699,120.71675v134.01862l-15.98153,-14.09532l-8.95261,-8.36675l-9.47054,-8.89437l3.92139,13.79382h-83.90301c-8.3607,0 -15.16765,-6.9346 -15.16765,-15.45209v-101.00391c0,-8.51749 6.80694,-15.45209 15.16765,-15.45209h99.14465c8.3607,0 15.16764,6.9346 15.24163,15.4521zM283.54228,191.57024c0,-24.04496 -10.65435,-43.56736 -10.65435,-43.56736c-10.58036,-8.06524 -20.71679,-7.83911 -20.71679,-7.83911l-1.03584,1.20601c12.57805,3.84418 18.42315,9.49739 18.42315,9.49739c-7.69481,-4.22106 -15.24164,-6.33159 -22.27055,-7.16073c-5.32718,-0.60301 -10.43238,-0.45226 -14.94568,0.15076c-0.44393,0 -0.81388,0.07538 -1.25781,0.15075c-2.5896,0.3015 -8.87862,1.20601 -16.7954,4.74869c-2.73758,1.20602 -4.36533,2.11053 -4.36533,2.11053c0,0 6.06707,-5.95471 19.385,-9.79889l-0.73988,-0.90451c0,0 -10.06245,-0.22613 -20.7168,7.83911c0,0 -10.65435,19.5224 -10.65435,43.56736c0,0 6.21504,10.85415 22.56651,11.38179c0,0 2.73757,-3.31654 4.95723,-6.18084c-9.39655,-2.86429 -12.94799,-8.819 -12.94799,-8.819c0,0 0.73989,0.52764 2.07168,1.2814c0.07399,0 0.14798,0.07538 0.29595,0.15075c0.22197,0.15075 0.44393,0.22613 0.6659,0.37688c1.84971,1.05526 3.69943,1.8844 5.40117,2.56278c3.03353,1.28139 6.65896,2.41204 10.87631,3.24117c5.54914,1.05526 12.06013,1.43215 19.16303,0.07538c3.47746,-0.67838 7.02891,-1.65827 10.72834,-3.24117c2.5896,-0.97989 5.47515,-2.41204 8.50868,-4.44719c0,0 -3.69943,6.10546 -13.39193,8.89438c2.21965,2.78892 4.88324,6.03008 4.88324,6.03008c16.35147,-0.52764 22.56651,-11.38179 22.56651,-11.30641z"/></g></g></g></svg>