<svg version="1.1" xmlns="http://www.w3.org/2000/svg" xmlns:xlink="http://www.w3.org/1999/xlink" width="57.84978" height="39.93545" viewBox="0,0,57.84978,39.93545"><g transform="translate(-211.07511,-160.05424)"><g data-paper-data="{&quot;isPaintingLayer&quot;:true}" fill-rule="nonzero" stroke-width="2" stroke-linecap="butt" stroke-linejoin="miter" stroke-miterlimit="10" stroke-dasharray="" stroke-dashoffset="0" style="mix-blend-mode: normal"><path d="M212.07511,194.80158c0,-3.80598 0,-20.13143 0,-28.40722c0,-2.92935 2.16276,-5.15613 5.22222,-5.34012c2.76929,-0.16655 6.27327,-0.23315 9.57302,0.11757c1.89123,0.20101 5.70342,0.62032 7.73923,4.21202c0.53954,0.95189 1.25904,4.06365 0.3663,7.01722c-0.25758,0.85216 -0.70727,2.03889 -1.39469,2.8809c-0.42211,0.51704 -2.29888,2.46636 -4.58237,3.09461c-3.16271,0.87014 -7.26425,-0.71962 -7.26425,-0.56388c0,5.51372 -0.86329,17.03275 -1.83374,19.52128c-0.13709,0.35153 -3.86924,0.51693 -5.69418,0.51693c-1.21593,0 -2.13154,-1.48892 -2.13154,-3.0493z" fill="#ffffff" stroke="#242424"/><path d="M220.75659,169.32964c0,-0.49482 0.82451,-1.18236 2.04918,-1.17565c1.22924,0.00673 2.85987,-0.09406 3.51442,-0.09406c0.68477,0 1.70192,1.70589 1.70192,2.37195c0,0.47541 -0.92994,1.22213 -1.63988,1.22213c-0.75994,0 -2.5205,0 -3.87126,0c-0.98647,0 -1.75438,-1.66184 -1.75438,-2.32437z" fill="#252525" stroke="#050505"/><path d="M222.094,195.75868c0.93222,-1.98405 3.91047,-10.27068 7.52209,-14.51401c0.31575,-0.37098 0.74984,-0.6811 1.23986,-0.93966c0.30489,-0.16088 1.06812,-0.33712 1.9025,-0.44924c1.05381,-0.1416 2.22111,-0.18093 2.72188,0.04217c0.90958,0.40523 1.85052,1.05283 2.61011,1.85204c2.46,2.58831 4.91669,7.11922 5.99156,9.88702c0.05566,0.14331 2.02939,4.29581 0.79443,5.9833c-0.12404,0.1695 -0.9153,0.93846 -1.83474,1.10078c-0.96392,0.17018 -2.4244,0.20138 -2.8167,-0.09778c-1.84234,-1.40494 -2.11614,-6.17035 -3.43097,-7.45759c-0.44412,-0.4348 -0.36432,0.05533 -0.7493,0.35717c-0.41249,0.32341 -1.25434,0.80124 -1.86159,0.85828c-0.64276,0.06037 -1.57068,0.09964 -2.21471,-0.16049c-0.78409,-0.3167 -1.26978,-1.2689 -1.31937,-1.18838c-1.18579,1.92554 -2.18125,6.16937 -2.57523,7.00787c-0.49052,1.04397 -3.36855,1.25155 -4.42661,0.85059c-0.917,-0.34751 -2.04624,-2.08274 -1.5532,-3.13208z" fill="#ffffff" stroke="#242424"/><path d="M235.2024,186.20191c0,0.24884 -0.70772,0.45057 -1.58072,0.45057c-0.87301,0 -1.58072,-0.20173 -1.58072,-0.45057c0,-0.24884 0.70771,-0.45056 1.58072,-0.45056c0.87301,0 1.58072,0.20172 1.58072,0.45056z" fill="#ffffff" stroke="#000000"/><path d="M246.02747,183.42685c0.57144,-2.39535 3.46438,-1.90248 5.08868,-0.84006c0.71517,0.46778 1.1262,1.22521 1.24497,1.50421c0.47962,1.1267 0.21565,3.17425 0.15245,5.41773c-0.0325,1.15326 -0.01193,2.35829 0.18994,3.51663c0.17922,1.02832 0.36801,-1.50457 0.50729,-4.15306c0.12687,-2.41259 0.21265,-4.9211 0.21265,-4.9211c0,0 0.92678,-0.74466 2.12431,-1.16517c1.8459,-0.64819 4.30298,-0.83921 4.751,1.22041c0.39261,1.80487 0.24303,9.95093 -2.51069,12.93624c-2.99568,3.24762 -8.69877,1.18516 -10.4258,-1.10962c-2.11425,-2.80929 -1.74601,-10.6825 -1.3348,-12.40621z" fill="#ffffff" stroke="#242424"/><path d="M261.87702,196.09838c0,-6.36292 0,-22.71722 0,-26.70224c0,-0.8487 0.36066,-2.03431 1.18236,-2.75758c0.82983,-0.73043 2.15232,-0.79596 2.36869,-0.77633c0.18405,0.0167 1.16122,0.26202 1.71063,1.133c0.62455,0.99012 0.78619,2.48421 0.78619,3.66696c0,4.22887 0,18.87524 0,25.12427c0,1.76603 -2.46131,3.20323 -3.06437,3.20323c-0.69938,0 -2.9835,-1.30677 -2.9835,-2.89131z" fill="#ffffff" stroke="#242424"/></g></g></svg>