<svg version="1.1" xmlns="http://www.w3.org/2000/svg" xmlns:xlink="http://www.w3.org/1999/xlink" width="123.74436" height="344.77344" viewBox="0,0,123.74436,344.77344"><g transform="translate(-131.31892,-27.76575)"><g data-paper-data="{&quot;isPaintingLayer&quot;:true}" fill-rule="nonzero" stroke-linejoin="miter" stroke-miterlimit="10" stroke-dasharray="" stroke-dashoffset="0" style="mix-blend-mode: normal"><path d="M156.10318,138.57836v-39.10156h67.86831v39.10156z" fill="#181818" stroke="#000000" stroke-width="2" stroke-linecap="butt"/><path d="M173.56243,170.32679c0,0 2.44206,-5.96519 2.44206,-8.92477c0,-2.80113 -2.44206,-8.38354 -2.44206,-8.38354h36.609c0,0 -2.01734,5.83773 -2.01734,8.48609c0,3.06109 2.01734,8.82223 2.01734,8.82223z" fill="#b56e6e" stroke="#000000" stroke-width="2" stroke-linecap="butt"/><path d="M141.06366,77.93391l13.85288,5.79782c0,0 -2.60425,23.72558 0.52722,36.73366c1.27089,5.27927 8.19333,7.29871 9.30156,7.57362c6.05119,1.50104 23.29382,2.36396 36.47753,1.98421c2.25005,-0.06482 8.3476,-0.0839 14.09461,-0.50222c3.40433,-0.24779 9.21081,-6.53754 9.48224,-13.31648c0.42309,-10.56647 0.85091,-24.62723 1.11273,-27.58529c0.21078,-2.38134 3.0771,-3.49161 3.0771,-3.49161c0,0 9.30384,-13.79915 10.49935,-3.61801c0.10128,0.86253 -0.94485,23.25743 -1.99012,36.65891c-0.20054,2.57117 0.02874,8.96614 -2.66909,14.13199c-2.72525,5.21836 -7.66415,10.48328 -10.086,12.24774c-4.21471,3.07065 -13.75697,8.64337 -24.24632,10.47544c-5.82937,1.01816 -18.10727,1.80699 -27.59213,-0.54824c-3.83742,-0.95289 -8.68037,-3.34055 -12.98393,-5.86686c-2.42411,-1.42302 -6.91961,-4.23072 -10.02328,-7.74195c-3.28302,-3.71414 -5.12887,-8.16341 -5.85201,-10.62907c-1.73587,-5.91875 -2.10656,-12.20535 -2.20279,-14.61843c-0.64512,-16.17804 -0.77955,-37.68522 -0.77955,-37.68522z" fill="#eae4db" stroke="#000000" stroke-width="2" stroke-linecap="butt"/><path d="M142.17144,88.52949l-0.26172,-12.5066l11.58306,4.64356v14.96724c0,0 -1.8768,-0.04036 -3.54583,-0.78442c-0.75602,-0.33704 -3.0437,-1.3731 -4.55441,-2.64647c-2.0099,-1.69415 -3.2211,-3.6733 -3.2211,-3.6733z" fill="#d5d0c8" stroke="none" stroke-width="0" stroke-linecap="butt"/><path d="M172.37425,129.26779c-0.57488,0.93316 -1.84269,1.23764 -2.91388,1.23764c-0.97135,0 -2.15809,-0.38048 -2.74038,-1.16967c-0.46869,-0.63521 -0.41442,-2.06662 -0.41442,-2.96436c0,-1.13342 0.04819,-2.18854 0.75483,-2.85707c0.54844,-0.51888 1.65348,-0.78797 2.41959,-0.78797c1.15313,0 2.23134,0.46503 2.78731,1.52112c0.28931,0.54957 0.38712,1.4349 0.38712,2.12392c0,0.78311 0.08585,2.30227 -0.28017,2.89639z" fill="#f8f8f8" stroke="#000000" stroke-width="2" stroke-linecap="butt"/><path d="M179.02651,131.56821c-0.57489,0.93315 -1.8427,1.23763 -2.91389,1.23763c-0.97136,0 -2.15809,-0.38047 -2.74038,-1.16966c-0.46868,-0.63521 -0.41442,-2.06663 -0.41442,-2.96437c0,-1.13342 0.0482,-2.18854 0.75484,-2.85707c0.54844,-0.51887 1.65348,-0.78796 2.41959,-0.78796c1.15313,0 2.23134,0.46503 2.78731,1.52112c0.28931,0.54956 0.38712,1.43489 0.38712,2.12391c0,0.78311 0.08585,2.30228 -0.28017,2.8964z" fill="#f8f8f8" stroke="#000000" stroke-width="2" stroke-linecap="butt"/><path d="M208.90016,128.58092c0,0.78311 0.08585,2.30227 -0.28017,2.89639c-0.57488,0.93316 -1.84269,1.23764 -2.91388,1.23764c-0.97135,0 -2.15809,-0.38048 -2.74038,-1.16967c-0.46868,-0.63521 -0.41442,-2.06662 -0.41442,-2.96436c0,-1.13342 0.0482,-2.18854 0.75484,-2.85707c0.54844,-0.51888 1.65348,-0.78797 2.41959,-0.78797c1.15313,0 2.23134,0.46503 2.78731,1.52112c0.28931,0.54957 0.38712,1.4349 0.38712,2.12392z" fill="#f8f8f8" stroke="#000000" stroke-width="2" stroke-linecap="butt"/><path d="M202.40355,129.67632c0,0.78311 0.08585,2.30228 -0.28017,2.8964c-0.57488,0.93316 -1.84269,1.23764 -2.91388,1.23764c-0.97136,0 -2.15809,-0.38048 -2.74038,-1.16967c-0.46868,-0.63521 -0.41442,-2.06663 -0.41442,-2.96437c0,-1.13342 0.0482,-2.18854 0.75484,-2.85707c0.54844,-0.51887 1.65348,-0.78796 2.41959,-0.78796c1.15312,0 2.23133,0.46503 2.7873,1.52112c0.28932,0.54956 0.38713,1.43489 0.38713,2.12391z" fill="#f8f8f8" stroke="#000000" stroke-width="2" stroke-linecap="butt"/><path d="M215.20643,126.82032c0,0.78311 0.08585,2.30227 -0.28017,2.89639c-0.57488,0.93316 -1.84269,1.23764 -2.91388,1.23764c-0.97135,0 -2.15809,-0.38048 -2.74038,-1.16967c-0.46868,-0.63521 -0.41442,-2.06662 -0.41442,-2.96436c0,-1.13342 0.0482,-2.18854 0.75484,-2.85707c0.54844,-0.51888 1.65348,-0.78797 2.41959,-0.78797c1.15313,0 2.23134,0.46503 2.78731,1.52112c0.28931,0.54957 0.38712,1.4349 0.38712,2.12392z" fill="#f8f8f8" stroke="#000000" stroke-width="2" stroke-linecap="butt"/><path d="M194.86165,130.31809c0,0.78311 0.08585,2.30228 -0.28017,2.8964c-0.57488,0.93316 -1.84269,1.23764 -2.91388,1.23764c-0.97136,0 -2.15809,-0.38048 -2.74038,-1.16967c-0.46868,-0.63521 -0.41442,-2.06663 -0.41442,-2.96437c0,-1.13342 0.0482,-2.18854 0.75484,-2.85707c0.54844,-0.51887 1.65348,-0.78796 2.41959,-0.78796c1.15312,0 2.23133,0.46503 2.7873,1.52112c0.28932,0.54956 0.38713,1.43489 0.38713,2.12391z" fill="#f8f8f8" stroke="#000000" stroke-width="2" stroke-linecap="butt"/><path d="M187.04917,129.9457c0,0.78311 0.08585,2.30228 -0.28017,2.8964c-0.57488,0.93316 -1.84269,1.23764 -2.91388,1.23764c-0.97136,0 -2.15809,-0.38048 -2.74038,-1.16967c-0.46868,-0.63521 -0.41442,-2.06663 -0.41442,-2.96437c0,-1.13342 0.0482,-2.18854 0.75484,-2.85707c0.54844,-0.51887 1.65348,-0.78796 2.41959,-0.78796c1.15312,0 2.23133,0.46503 2.7873,1.52112c0.28932,0.54956 0.38713,1.43489 0.38713,2.12391z" fill="#f8f8f8" stroke="#000000" stroke-width="2" stroke-linecap="butt"/><path d="M234.25154,95.39827l3.32377,-15.28856c0.15922,0.48721 0.28378,1.08315 0.36728,1.80182c0.09755,0.83967 -0.91005,22.64108 -1.91682,35.6874c-0.19315,2.50303 0.02768,8.72852 -2.57078,13.75748c-2.62487,5.08006 -7.38186,10.20546 -9.71451,11.92316c-4.05947,2.98927 -13.25026,8.41431 -23.35326,10.19783c-5.61467,0.99117 -17.44033,1.7591 -26.57584,-0.53372c-3.69608,-0.92763 -8.36065,-3.25201 -12.5057,-5.71138c-2.33482,-1.38531 -6.66474,-4.11859 -9.65409,-7.53678c-3.16209,-3.61571 -4.93997,-7.94707 -5.63646,-10.34739c-1.67193,-5.7619 -2.02897,-11.88189 -2.12166,-14.23102c-0.62136,-15.7493 -0.75083,-36.68652 -0.75083,-36.68652v-0.00001l0.95561,0.40424" fill="none" stroke="#724646" stroke-width="1.5" stroke-linecap="butt"/><path d="M234.92189,95.9101c-1.51071,1.27337 -3.79839,2.30944 -4.55441,2.64648c-1.66903,0.74407 -3.54583,0.78442 -3.54583,0.78442v-14.96724l11.58306,-4.64356l-0.26172,12.5066c0,0 -1.2112,1.97915 -3.2211,3.6733z" data-paper-data="{&quot;index&quot;:null}" fill="#d5d0c8" stroke="none" stroke-width="0" stroke-linecap="butt"/><path d="M241.92093,68.37555c0,13.4443 -3.50106,24.70256 -15.82615,29.30097c-0.19438,0.07252 -6.68347,0.57738 -9.20769,0.59826c-2.07488,0.01716 -1.2876,9.48055 -2.57941,10.50597c-1.37626,1.09248 -47.18169,-0.46513 -47.62202,-0.67932c-2.25014,-1.09456 -1.03634,-11.90475 -2.27137,-11.98971c-7.65169,-0.52635 -8.19422,-0.60915 -8.21849,-0.62134c-13.4383,-6.75125 -16.0205,-17.23469 -16.0205,-26.6738c0,-23.12611 19.74163,-39.66833 49.08922,-39.66833c29.34758,0 52.65642,16.10119 52.65642,39.2273z" fill="#eae4db" stroke="#000000" stroke-width="2" stroke-linecap="butt"/><path d="M168.64635,77.5767c-2.88943,0 -5.97954,-0.58048 -7.93622,-1.9832c-2.13817,-1.53284 -4.42122,-4.15852 -4.42122,-6.58058c0,-1.0386 0.8398,-4.22183 2.77764,-6.21299c1.66688,-1.71273 5.65731,-2.20383 8.0286,-1.87712c0.94481,0.13018 5.64386,0.37088 9.99934,2.96209c1.58235,0.94139 4.35043,4.11491 4.46063,6.79328c0.12012,2.91933 -2.55232,5.34347 -4.08283,6.01251c-3.68923,1.61272 -7.93278,0.88601 -8.82595,0.88601z" fill="#0a0a0a" stroke="#0a0a0a" stroke-width="2" stroke-linecap="butt"/><path d="M201.51909,76.26776c-1.53051,-0.66905 -4.20295,-3.09318 -4.08283,-6.01251c0.11021,-2.67837 2.87829,-5.85188 4.46063,-6.79327c4.35548,-2.59122 9.05453,-2.83192 9.99934,-2.9621c2.3713,-0.32671 6.36173,0.1644 8.0286,1.87712c1.93784,1.99115 2.77764,5.17439 2.77764,6.21299c0,2.42206 -2.28305,5.04774 -4.42123,6.58058c-1.95668,1.40273 -5.04679,1.9832 -7.93622,1.9832c-0.89317,0 -5.13671,0.72671 -8.82594,-0.88601z" data-paper-data="{&quot;index&quot;:null}" fill="#000000" stroke="#0a0a0a" stroke-width="2" stroke-linecap="butt"/><path d="M198.6542,79.38912c0,0 -0.79549,-0.8623 -1.28958,-1.60915c-0.68283,-1.03215 -0.88996,-2.64249 -0.8517,-3.60046c0.03433,-0.8594 0.08921,-2.78669 0.60051,-4.09713c0.78419,-2.00981 2.56287,-4.15461 2.56287,-4.15461" fill="none" stroke="#0a0a0a" stroke-width="2" stroke-linecap="round"/><path d="M178.94162,65.7101c0,0 1.77868,2.19568 2.56287,4.25315c0.5113,1.34152 0.56618,3.31453 0.60051,4.19431c0.03826,0.98069 -0.16887,2.62922 -0.85169,3.68586c-0.49409,0.76456 -1.28958,1.64732 -1.28958,1.64732" data-paper-data="{&quot;index&quot;:null}" fill="none" stroke="#0a0a0a" stroke-width="2" stroke-linecap="round"/><path d="M187.19105,82.41434c0.09379,-0.00881 0.42174,2.41481 0.3358,4.72249c-0.06617,1.777 -0.4652,3.5063 -0.86719,3.87361c-0.66097,0.60396 -2.75066,0.94539 -3.77149,0.06766c-0.47936,-0.41217 -0.63701,-2.75751 0.43962,-4.67531c1.23586,-2.20143 3.77375,-3.98003 3.86325,-3.98844z" fill="#000000" stroke="#000000" stroke-width="2" stroke-linecap="butt"/><path d="M195.36322,86.67737c1.07663,1.9178 0.91898,4.26315 0.43962,4.67532c-1.02083,0.87774 -3.11051,0.5363 -3.77148,-0.06766c-0.40198,-0.36731 -0.80101,-2.09662 -0.86719,-3.87362c-0.08594,-2.30767 0.24201,-4.7313 0.3358,-4.72248c0.0895,0.00842 2.62738,1.78701 3.86324,3.98844z" data-paper-data="{&quot;index&quot;:null}" fill="#000000" stroke="#000000" stroke-width="2" stroke-linecap="butt"/><path d="M196.66446,73.24053c0,-1.05282 0.65079,-1.95363 1.57203,-2.32211l0.37385,-0.26286c0.73666,-0.39202 1.47331,-0.78405 2.20997,-1.17607c0,0 0.38239,-0.2035 0.91353,-0.2819c0.78295,-0.44359 1.54668,-0.92175 2.28888,-1.42824c0,0 1.61059,-1.09241 2.95356,0.07145c1.0711,0.28241 1.86088,1.25775 1.86088,2.41756c0,1.38071 -1.11929,2.5 -2.5,2.5c-0.23378,0 -0.46006,-0.03209 -0.67469,-0.0921c-0.67593,0.42337 -1.36483,0.82685 -2.06561,1.20773c-0.4444,0.69316 -1.22162,1.1525 -2.10613,1.1525c-0.00214,0 -0.00429,-0.00001 -0.00643,-0.00001c-0.19621,0.08598 -0.44171,0.17079 -0.71614,0.21545c-0.1311,0.08132 -0.34756,0.20094 -0.61892,0.29715c-0.30221,0.12965 -0.63512,0.20144 -0.9848,0.20144c-1.38071,0 -2.5,-1.11929 -2.5,-2.5z" fill="#000000" stroke="none" stroke-width="0.5" stroke-linecap="butt"/><path d="M239.87432,68.59597c0,12.76509 -3.35404,23.45457 -15.16155,27.82066c-0.18622,0.06886 -6.4028,0.54821 -8.82102,0.56804c-1.98774,0.01629 -1.23354,9.00159 -2.4711,9.9752c-1.31847,1.03728 -45.20035,-0.44163 -45.62219,-0.645c-2.15565,-1.03927 -0.99282,-11.30331 -2.17598,-11.38398c-7.33037,-0.49976 -7.85011,-0.57837 -7.87336,-0.58995c-12.87397,-6.41018 -15.34774,-16.36398 -15.34774,-25.32622c0,-21.95776 18.9126,-37.66426 47.02777,-37.66426c28.11516,0 50.44518,15.28775 50.44518,37.24551z" fill="none" stroke="#ccc7bf" stroke-width="2" stroke-linecap="butt"/><path d="M172.38596,110.42298c-0.57488,0.93316 -1.84269,1.23764 -2.91388,1.23764c-0.97135,0 -2.15809,-0.38048 -2.74038,-1.16967c-0.46869,-0.63521 -0.41442,-2.06662 -0.41442,-2.96436c0,-1.13342 0.04819,-2.18854 0.75483,-2.85707c0.54844,-0.51888 1.65348,-0.78797 2.41959,-0.78797c1.15313,0 2.23134,0.46503 2.78731,1.52112c0.28931,0.54957 0.38712,1.4349 0.38712,2.12392c0,0.78311 0.08585,2.30227 -0.28017,2.89639z" fill="#f8f8f8" stroke="#000000" stroke-width="2" stroke-linecap="butt"/><path d="M178.97672,108.66162c-0.57489,0.93315 -1.8427,1.23763 -2.91389,1.23763c-0.97136,0 -2.15809,-0.38047 -2.74038,-1.16966c-0.46868,-0.63521 -0.41442,-2.06663 -0.41442,-2.96437c0,-1.13342 0.0482,-2.18854 0.75484,-2.85707c0.54844,-0.51887 1.65348,-0.78796 2.41959,-0.78796c1.15313,0 2.23134,0.46503 2.78731,1.52112c0.28931,0.54956 0.38712,1.43489 0.38712,2.12391c0,0.78311 0.08585,2.30228 -0.28017,2.8964z" fill="#f8f8f8" stroke="#000000" stroke-width="2" stroke-linecap="butt"/><path d="M207.98892,107.15991c0,0.78311 0.08585,2.30227 -0.28017,2.89639c-0.57488,0.93316 -1.84269,1.23764 -2.91388,1.23764c-0.97135,0 -2.15809,-0.38048 -2.74038,-1.16967c-0.46868,-0.63521 -0.41442,-2.06662 -0.41442,-2.96436c0,-1.13342 0.0482,-2.18854 0.75484,-2.85707c0.54844,-0.51888 1.65348,-0.78797 2.41959,-0.78797c1.15313,0 2.23134,0.46503 2.78731,1.52112c0.28931,0.54957 0.38712,1.4349 0.38712,2.12392z" fill="#f8f8f8" stroke="#000000" stroke-width="2" stroke-linecap="butt"/><path d="M201.36987,105.99767c0,0.78311 0.08585,2.30228 -0.28017,2.8964c-0.57488,0.93316 -1.84269,1.23764 -2.91388,1.23764c-0.97136,0 -2.15809,-0.38048 -2.74038,-1.16967c-0.46868,-0.63521 -0.41442,-2.06663 -0.41442,-2.96437c0,-1.13342 0.0482,-2.18854 0.75484,-2.85707c0.54844,-0.51887 1.65348,-0.78796 2.41959,-0.78796c1.15312,0 2.23133,0.46503 2.7873,1.52112c0.28932,0.54956 0.38713,1.43489 0.38713,2.12391z" fill="#f8f8f8" stroke="#000000" stroke-width="2" stroke-linecap="butt"/><path d="M214.8425,108.59731c0,0.78311 0.08585,2.30227 -0.28017,2.89639c-0.57488,0.93316 -1.84269,1.23764 -2.91388,1.23764c-0.97135,0 -2.15809,-0.38048 -2.74038,-1.16967c-0.46868,-0.63521 -0.41442,-2.06662 -0.41442,-2.96436c0,-1.13342 0.0482,-2.18854 0.75484,-2.85707c0.54844,-0.51888 1.65348,-0.78797 2.41959,-0.78797c1.15313,0 2.23134,0.46503 2.78731,1.52112c0.28931,0.54957 0.38712,1.4349 0.38712,2.12392z" fill="#f8f8f8" stroke="#000000" stroke-width="2" stroke-linecap="butt"/><path d="M194.3579,105.70363c0,0.78311 0.08585,2.30228 -0.28017,2.8964c-0.57488,0.93316 -1.84269,1.23764 -2.91388,1.23764c-0.97136,0 -2.15809,-0.38048 -2.74038,-1.16967c-0.46868,-0.63521 -0.41442,-2.06663 -0.41442,-2.96437c0,-1.13342 0.0482,-2.18854 0.75484,-2.85707c0.54844,-0.51887 1.65348,-0.78796 2.41959,-0.78796c1.15312,0 2.23133,0.46503 2.7873,1.52112c0.28932,0.54956 0.38713,1.43489 0.38713,2.12391z" fill="#f8f8f8" stroke="#000000" stroke-width="2" stroke-linecap="butt"/><path d="M186.99333,105.49037c0,0.78311 0.08585,2.30228 -0.28017,2.8964c-0.57488,0.93316 -1.84269,1.23764 -2.91388,1.23764c-0.97136,0 -2.15809,-0.38048 -2.74038,-1.16967c-0.46868,-0.63521 -0.41442,-2.06663 -0.41442,-2.96437c0,-1.13342 0.0482,-2.18854 0.75484,-2.85707c0.54844,-0.51887 1.65348,-0.78796 2.41959,-0.78796c1.15312,0 2.23133,0.46503 2.7873,1.52112c0.28932,0.54956 0.38713,1.43489 0.38713,2.12391z" fill="#f8f8f8" stroke="#000000" stroke-width="2" stroke-linecap="butt"/><path d="M217.96559,70.451c0,4.4829 -3.79211,8.11701 -8.46992,8.11701c-4.67781,0 -8.46992,-3.63411 -8.46992,-8.11701c0,-4.4829 3.79211,-8.11702 8.46992,-8.11702c4.67781,0 8.46992,3.63412 8.46992,8.11702z" fill="#ffffff" stroke="#43413f" stroke-width="1" stroke-linecap="butt"/><path d="M136.22475,108.55357z" fill="#ffffff" stroke="#8d8984" stroke-width="2" stroke-linecap="butt"/><path d="M241.26338,69.97309c0,3.76426 -1.72486,9.8623 -2.78281,15.60963c-0.27556,1.49705 -0.26527,14.02591 -0.99223,24.52595c-0.08735,1.2616 -0.4266,4.3023 -0.76897,7.68286c-0.12543,1.23852 -0.04023,5.0841 -0.60019,8.26366c-0.26691,1.51554 -1.87974,6.1217 -4.34572,10.07408c-1.54766,2.48052 -3.74039,4.54498 -5.18461,5.92028c-6.04861,5.75991 -15.00162,9.32011 -23.83281,11.37553c-7.63281,1.77652 -14.10026,1.68847 -18.071,1.68847c-12.12452,0 -21.4421,-6.61119 -26.078,-9.10633c-3.70776,-1.99559 -7.96274,-4.95606 -10.91136,-11.66699c-0.23905,-0.54406 -1.64919,-3.36597 -2.48886,-6.9715c-1.1948,-5.13049 -1.89213,-11.87634 -2.0554,-16.14959c-0.18944,-4.95799 -0.33826,-11.04599 -0.08884,-16.79283c0.14797,-3.4095 0.12053,-6.49168 0.00185,-9.53061c-0.3089,-7.90953 -1.42953,-14.52523 -1.42953,-16.09107c0,-21.7189 19.59517,-38.58982 47.39367,-38.58982c15.24129,0 28.7785,3.45528 38.77443,11.87367c3.41868,2.87914 6.41916,6.19601 8.65531,10.02012c3.15075,5.38816 4.80509,12.12615 4.80509,17.86445zM207.68853,104.73601c-0.64999,0 -2.14569,-0.62367 -5.52392,-1.23958c-1.87919,-0.34261 -5.25726,-1.00638 -7.6482,-1.21399c-2.09108,-0.18158 -2.84986,-1.85245 -5.17427,-1.89584c-0.64814,-0.0121 -3.20845,-0.88879 -3.85559,-0.97482c-1.01235,-0.13457 -1.53705,-0.64786 -2.58916,-0.619c-0.57965,0.01591 -1.12289,1.93101 -1.70307,1.86863c-0.87259,-0.09382 -1.78699,0.57897 -2.66852,0.54015c-1.42381,-0.06269 -2.62497,1.45441 -3.9868,1.5986c-0.39513,0.04184 -0.85293,0.66752 -2.00401,0.87858c-1.28912,0.23638 -3.24093,-0.20823 -4.98356,0.30971c-1.8886,0.56133 -3.6044,1.98816 -5.0505,3.30435c-1.11478,1.01462 -1.38548,2.29539 -2.33364,3.91027c-1.2848,2.18821 -2.09153,5.35101 -1.719,6.56762c0.70222,2.29327 -0.32612,5.39721 2.6704,7.6432c2.80847,2.10504 4.22147,6.49225 6.22725,7.2058c3.24334,1.15381 4.28802,2.94779 7.86158,3.38428c1.73064,0.21139 8.44911,-0.85403 10.36088,-0.91147c3.34971,-0.10066 9.83639,3.3676 12.99344,3.06876c3.54856,-0.33591 6.43751,-3.64749 9.01572,-4.20514c2.88009,-0.62295 6.90068,0.26224 10.29707,-2.82804c0.53348,-0.4854 1.76749,-5.96127 2.88514,-8.00933c1.23922,-2.27085 1.94745,-5.05411 1.90625,-5.98669c-0.02976,-0.67375 -0.96819,-3.22179 -2.14281,-5.15221c-1.09721,-1.8032 -2.41538,-2.99854 -2.98331,-3.51914c-3.69713,-3.38909 -8.94738,-3.72468 -9.85136,-3.72468zM209.9405,79.35542c5.52285,0 10.52856,-3.22783 10.52856,-8.75067c0,-5.52284 -5.72648,-9.58355 -11.24933,-9.58355c-5.52285,0 -10,4.47716 -10,10c0,5.52284 5.19792,8.33422 10.72078,8.33422zM169.90979,78.90748c2.83579,0 5.83429,-0.97948 7.10546,-1.88351c1.2045,-0.85662 2.03951,-2.84768 2.03951,-5.53474c0,-1.32471 -0.4171,-5.45386 -2.43289,-8.06896c-2.16177,-2.80447 -6.30989,-3.69686 -7.74717,-3.69686c-5.16929,0 -9.16651,3.90032 -9.58021,8.94831c-0.01436,0.17527 -0.16384,4.00775 1.90222,6.56013c2.00376,2.47541 6.1842,3.67562 8.71309,3.67562z" fill="#b56e6e" stroke="#724646" stroke-width="1.5" stroke-linecap="butt"/><g stroke="none" stroke-width="0" stroke-linecap="butt"><path d="M213.61655,70.41093c0,2.35761 -2.01314,4.26884 -4.49648,4.26884c-2.48334,0 -4.49648,-1.91123 -4.49648,-4.26884c0,-2.35761 2.01314,-4.26884 4.49648,-4.26884c2.48334,0 4.49648,1.91122 4.49648,4.26884z" fill="#122d53"/><path d="M209.65919,69.7942v-3.70429h3.78341l0.25673,3.1022z" fill="#ffffff"/></g><path d="M177.0667,69.39633c0,4.4829 -3.79211,8.11701 -8.46992,8.11701c-4.67781,0 -8.46992,-3.63411 -8.46992,-8.11701c0,-4.4829 3.79211,-8.11702 8.46992,-8.11702c4.67781,0 8.46992,3.63412 8.46992,8.11702z" fill="#ffffff" stroke="#43413f" stroke-width="1" stroke-linecap="butt"/><g stroke="none" stroke-width="0" stroke-linecap="butt"><path d="M172.96971,69.31425c0,2.35761 -2.01314,4.26884 -4.49648,4.26884c-2.48334,0 -4.49648,-1.91123 -4.49648,-4.26884c0,-2.35761 2.01314,-4.26884 4.49648,-4.26884c2.48334,0 4.49648,1.91122 4.49648,4.26884z" fill="#122d53"/><path d="M169.01235,68.69752v-3.70429h3.78341l0.25673,3.1022z" fill="#ffffff"/></g><path d="M152.20729,236.88392c-3.03861,-6.29871 -7.28244,-11.75481 -8.01671,-13.95634c-2.25887,-6.77268 -3.28994,-16.76023 -2.3138,-22.19211c0.27163,-1.51151 -0.51709,-12.28517 4.92613,-18.32393c9.69105,-10.75136 28.7624,-18.92403 28.7624,-18.92403l32.5229,1.23759c0,0 15.07331,2.51397 24.93138,12.20045c2.54923,2.50486 5.78098,5.52393 8.80648,13.68828c2.26356,6.10823 2.2022,16.70857 2.61607,21.67711c0.72857,8.74658 -7.15624,20.16699 -8.44101,24.53793c-2.06913,7.03948 -4.66139,27.38198 -4.82752,34.56871c-0.14635,6.33137 -3.91737,13.27549 -9.89335,17.17429c-7.48049,4.88036 -17.58203,6.85945 -24.71207,6.98116c-6.71636,0.11464 -18.59067,-3.33808 -26.18706,-7.72033c-6.5956,-3.80492 -10.79693,-11.1567 -12.11033,-16.8066c0,0 -4.06428,-29.998 -6.0635,-34.14217z" fill="#b56e6e" stroke="#000000" stroke-width="2" stroke-linecap="butt"/><path d="M213.51396,138.37967c0,0.75 -0.75,0.75 -0.75,0.75l-1.00888,-0.00298c-2.42184,0.42825 -4.53481,2.11001 -6.76794,3.09846c0,0 -0.68594,0.3033 -0.98924,-0.38263c-0.3033,-0.68594 0.38264,-0.98924 0.38264,-0.98924c2.42912,-1.07295 4.60395,-2.73718 7.24075,-3.2206l1.14267,-0.00299c0,0 0.75,0 0.75,0.75z" fill="#9e6060" stroke="none" stroke-width="0.5" stroke-linecap="butt"/><path d="M164.03067,134.51972c-0.43909,0.60803 -1.04712,0.16894 -1.04712,0.16894l-0.30522,-0.23189c-2.1481,-2.1402 -3.844,-4.22743 -6.75253,-5.3768c0,0 -0.69684,-0.27733 -0.41952,-0.97417c0.27732,-0.69684 0.97416,-0.41952 0.97416,-0.41952c3.10654,1.24415 4.95446,3.41801 7.25616,5.70746l0.12512,0.07887c0,0 0.60803,0.43909 0.16894,1.04712z" fill="#9e6060" stroke="none" stroke-width="0.5" stroke-linecap="butt"/><path d="M193.98099,143.7517c-0.56175,0.49694 -1.05868,-0.06481 -1.05868,-0.06481l-0.0666,-0.12536c-2.80211,-1.72172 -5.4921,-1.68119 -8.6799,-1.68089c0,0 -0.75,0 -0.75,-0.75c0,-0.75 0.75,-0.75 0.75,-0.75c3.47555,0.00034 6.40207,0.04422 9.46135,1.90053l0.40863,0.41186c0,0 0.49694,0.56174 -0.06481,1.05868z" fill="#9e6060" stroke="none" stroke-width="0.5" stroke-linecap="butt"/><path d="M167.8431,148.42954c-0.09131,0.74442 -0.83573,0.65311 -0.83573,0.65311l-0.55677,-0.06835c-1.46429,-0.19823 -2.86713,-0.39906 -4.25299,-0.91361c0,0 -0.70257,-0.26245 -0.44012,-0.96504c0.26245,-0.70258 0.96504,-0.44012 0.96504,-0.44012c1.27566,0.4798 2.5793,0.64984 3.92916,0.83231l0.5383,0.06597c0,0 0.74442,0.09131 0.65312,0.83573z" fill="#9e6060" stroke="none" stroke-width="0.5" stroke-linecap="butt"/><path d="M151.38834,135.00947c-0.4912,0.56677 -1.05796,0.07557 -1.05796,0.07557l-0.23298,-0.21456c-1.45377,-0.90077 -2.38223,-1.87977 -3.45338,-3.1889c0,0 -0.47492,-0.58047 0.10555,-1.0554c0.58047,-0.47493 1.0554,0.10555 1.0554,0.10555c0.97092,1.18678 1.76528,2.04903 3.08198,2.86336l0.42584,0.35641c0,0 0.56677,0.4912 0.07557,1.05796z" fill="#9e6060" stroke="none" stroke-width="0.5" stroke-linecap="butt"/><path d="M146.82336,116.34539c-0.52626,0.53437 -1.06063,0.0081 -1.06063,0.0081l-0.45821,-0.53698c-1.1522,-2.83162 -1.79071,-5.69144 -2.56115,-8.6589c0,0 -0.18847,-0.72593 0.53747,-0.9144c0.72593,-0.18847 0.9144,0.53747 0.9144,0.53747c0.7538,2.90371 1.37042,5.70226 2.49849,8.47008l0.12154,0.03399c0,0 0.53436,0.52626 0.00809,1.06063z" fill="#9e6060" stroke="none" stroke-width="0.5" stroke-linecap="butt"/><path d="M187.52693,84.01569c-1.12376,0.86693 -0.63327,2.20476 -1.7585,3.11791l-1.47644,-0.06461c0,0 -0.34644,0.32839 -0.74853,0.18482c-0.18613,0.13219 -0.49467,0.24695 -0.85978,-0.02497c-0.60151,-0.44798 -0.15353,-1.04949 -0.15353,-1.04949c1.1586,-1.5548 2.1178,-3.31115 3.35019,-4.76705l1.17425,-0.03042c0,0 0.74905,0.03774 0.71131,0.78679c-0.00489,0.09705 -0.02172,0.18088 -0.04731,0.25331c0.35684,0.55063 -0.17976,0.97485 -0.17976,0.97485z" fill="#9e6060" stroke="none" stroke-width="0.5" stroke-linecap="butt"/><path d="M195.49719,87.94103c-0.63617,0.39723 -1.75938,-0.29049 -1.75938,-0.29049c-0.90564,-1.45349 -1.62539,-2.5654 -3.04136,-3.60686l0.83065,-0.53483c0,0 -0.21899,-0.19772 -0.25825,-0.48248c-0.17685,-0.11592 -0.34437,-0.32653 -0.29569,-0.70395c0.09593,-0.74384 0.83977,-0.64791 0.83977,-0.64791c2.41564,0.3533 2.41294,2.35407 3.90675,3.85173l0.19557,0.17481c0,0 0.52532,0.47424 0.09467,1.01166l0.04417,0.40894c0,0 0.0705,0.65272 -0.5311,0.80275c-0.00841,0.00558 -0.017,0.01112 -0.0258,0.01662z" fill="#9e6060" stroke="none" stroke-width="0.5" stroke-linecap="butt"/><path d="M143.78339,80.26873c0.74683,0.06896 0.67786,0.81578 0.67786,0.81578l-0.02509,0.0136c0.04354,0.26957 0.08709,0.53914 0.13064,0.8087c0,0 0.03387,0.20968 -0.04602,0.42389c0.03996,3.8986 2.50594,9.83634 5.79553,12.05712l0.36846,0.12085c0,0 0.69948,0.27061 0.42887,0.97009c-0.27061,0.69948 -0.97009,0.42887 -0.97009,0.42887l-0.67663,-0.28347c-3.74931,-2.61225 -6.42699,-8.9807 -6.44651,-13.436c0,0 0,-0.09909 0.03601,-0.22522c-0.03368,-0.20854 -0.06738,-0.41708 -0.10106,-0.62562l0.01225,-0.39072c0,0 0.06896,-0.74682 0.81578,-0.67786z" fill="#9e6060" stroke="none" stroke-width="0.5" stroke-linecap="butt"/><path d="M237.03952,111.23633c0.68752,0.2997 0.38782,0.98721 0.38782,0.98721l-0.08185,0.12985c-0.62886,3.83478 -1.97349,7.74769 -3.70024,11.21847c0,0 -0.33419,0.67142 -1.00562,0.33723c-0.67143,-0.33419 -0.33724,-1.00562 -0.33724,-1.00562c1.66005,-3.33372 2.96241,-7.10657 3.56274,-10.79206l0.18716,-0.48727c0,0 0.2997,-0.68752 0.98722,-0.38782z" fill="#9e6060" stroke="none" stroke-width="0.5" stroke-linecap="butt"/><path d="M235.0196,93.40228c-0.79229,0.95262 -1.85701,1.36662 -2.57361,2.37008c0,0 -0.4434,0.60489 -1.04829,0.16148c-0.60489,-0.44341 -0.16149,-1.04829 -0.16149,-1.04829c0.76278,-1.01997 1.83824,-1.47312 2.62974,-2.44196c1.57298,-1.92543 2.75646,-4.16163 3.79475,-6.43924c-0.1005,1.04825 -0.0591,2.10819 0.13974,3.14159c-0.79838,1.51055 -1.70152,2.95863 -2.78083,4.25634z" fill="#9e6060" stroke="none" stroke-width="0.5" stroke-linecap="butt"/><path d="M239.79054,80.32403c0,0 -2.37497,5.3925 -3.79257,7.79831c-1.43219,2.43057 -4.75723,6.71162 -4.75723,6.71162" fill="none" stroke="#724646" stroke-width="1.5" stroke-linecap="round"/><path d="M141.86124,81.40229c-0.31009,-0.92699 -0.13278,-3.79497 -0.34185,-4.73239c-0.6147,-2.75625 -0.82553,-5.53867 -0.82553,-8.23582c0,-23.12611 19.74163,-39.66833 49.08922,-39.66833c29.34758,0 52.65642,16.10119 52.65642,39.2273h-0.00001c0,1.86897 -0.15441,4.65116 -0.44819,7.25412c-0.24536,2.17396 -0.58198,4.24868 -1.06339,5.31783l-0.81044,2.02678c-0.06038,3.64053 -1.02753,23.7187 -1.99394,36.10918c-0.20054,2.57117 0.02874,8.96614 -2.66909,14.13199c-2.72525,5.21836 -7.66415,10.48328 -10.086,12.24774c-4.21471,3.07065 -13.75697,8.64337 -24.24632,10.47544c-5.82937,1.01816 -18.10727,1.80699 -27.59213,-0.54824c-3.83742,-0.95289 -8.68037,-3.34055 -12.98393,-5.86686c-2.42411,-1.42302 -6.91961,-4.23072 -10.02328,-7.74195c-3.28302,-3.71414 -5.12887,-8.16341 -5.85201,-10.62907c-1.73587,-5.91875 -2.10656,-12.20535 -2.20279,-14.61843c-0.51922,-13.02068 -0.70763,-29.49338 -0.76139,-35.42716" fill="none" stroke="#000000" stroke-width="2" stroke-linecap="butt"/><path d="M237.44538,104.49068c0,0 -1.20252,5.73233 -2.05729,8.62211c-0.93686,3.16728 -3.34023,9.62551 -3.34023,9.62551" fill="none" stroke="#724646" stroke-width="1.5" stroke-linecap="round"/><path d="M165.9396,147.36866c0,0 -3.35031,-0.58393 -5.0933,-1.2609c-2.09352,-0.81312 -6.61001,-3.28465 -6.61001,-3.28465" fill="none" stroke="#724646" stroke-width="1.5" stroke-linecap="round"/><path d="M150.96593,133.68739c0,0 -2.45174,-1.85315 -3.46626,-3.28194c-1.04158,-1.46689 -2.70419,-5.40812 -2.70419,-5.40812" fill="none" stroke="#724646" stroke-width="1.5" stroke-linecap="round"/><path d="M184.0909,140.4601c0,0 2.44011,-0.63153 3.96093,-0.42046c1.60755,0.22312 5.43863,1.72503 5.43863,1.72503" fill="none" stroke="#724646" stroke-width="1.5" stroke-linecap="round"/><path d="M158.12142,127.8616c0,0 1.77438,1.02944 2.61038,1.84797c0.83758,0.82008 2.41037,3.06786 2.41037,3.06786" fill="none" stroke="#724646" stroke-width="1.5" stroke-linecap="round"/><path d="M204.23567,141.36775c0,0 2.46062,-1.84401 3.72563,-2.46132c1.20766,-0.58933 5.41115,-1.63367 5.41115,-1.63367" fill="none" stroke="#724646" stroke-width="1.5" stroke-linecap="round"/><path d="M147.08318,115.76375c0,0 -1.23842,-3.45599 -1.78815,-5.74808c-0.58954,-2.45809 -1.63806,-8.53731 -1.63806,-8.53731" fill="none" stroke="#724646" stroke-width="1.5" stroke-linecap="round"/><path d="M151.13154,94.89224c0,0 -3.97259,-4.88947 -5.08755,-7.39671c-1.14697,-2.57922 -3.88197,-17.78466 -3.88197,-17.78466" fill="none" stroke="#724646" stroke-width="1.5" stroke-linecap="round"/><path d="M191.85836,81.74764c0,0 0.93002,-0.40416 1.62287,0.22183c0.48648,0.43954 0.69953,1.36838 0.94389,1.70731c0.53912,0.74774 1.45371,2.97688 1.45371,2.97688" data-paper-data="{&quot;index&quot;:null}" fill="none" stroke="#724646" stroke-width="1.5" stroke-linecap="round"/><path d="M182.65473,86.46966c0,0 0.93924,-2.22914 1.4929,-2.97688c0.25096,-0.33892 0.46975,-1.26777 0.96935,-1.70731c0.71153,-0.62599 1.66663,-0.22183 1.66663,-0.22183" fill="none" stroke="#724646" stroke-width="1.5" stroke-linecap="round"/><path d="M151.29701,195.35616c0,0 12.0883,-5.44373 17.89748,-6.09025c3.276,-0.3646 8.49805,-1.3357 12.83732,-0.90069" data-paper-data="{&quot;index&quot;:null}" fill="none" stroke="#8a5454" stroke-width="2" stroke-linecap="round"/><path d="M208.94125,200.63482c3.54986,-0.43501 7.82189,0.53609 10.50192,0.90069c4.75236,0.64652 14.64153,6.09025 14.64153,6.09025" data-paper-data="{&quot;index&quot;:null}" fill="none" stroke="#8a5454" stroke-width="2" stroke-linecap="round"/><path d="M154.44385,223.78096c0,0 7.82846,-5.44373 11.59053,-6.09025c2.12156,-0.3646 5.50338,-1.3357 8.31352,-0.90068" data-paper-data="{&quot;index&quot;:null}" fill="none" stroke="#8a5454" stroke-width="2" stroke-linecap="round"/><path d="M202.78861,188.61007c4.33927,-0.43501 9.56131,0.53609 12.83732,0.90069c5.80919,0.64652 17.89748,6.09025 17.89748,6.09025" data-paper-data="{&quot;index&quot;:null}" fill="none" stroke="#8a5454" stroke-width="2" stroke-linecap="round"/><path d="M152.00589,208.86923c0,0 9.88917,-5.44373 14.64153,-6.09025c2.68003,-0.3646 6.95206,-1.3357 10.50192,-0.90069" data-paper-data="{&quot;index&quot;:null}" fill="none" stroke="#8a5454" stroke-width="2" stroke-linecap="round"/><path d="M165.0915,242.96245c0,0 -4.08043,-2.40644 -6.01308,-3.91698c-2.36368,-1.84742 -7.13801,-6.36175 -7.13801,-6.36175" fill="none" stroke="#8a5454" stroke-width="2" stroke-linecap="round"/><path d="M206.13248,168.46464c-1.60073,0.50789 -2.46735,-0.40069 -2.86381,-1.0519c-0.09047,-0.00939 -0.14257,-0.01932 -0.14257,-0.01932l-1.20889,-0.27052c-6.81671,-0.12619 -13.4591,1.11069 -20.35514,0.08701c0,0 -0.4548,-0.0681 -0.94507,-0.34094l-0.22366,0.90267c0,0 -0.71748,2.39483 -3.11231,1.67735c-2.39483,-0.71749 -1.67735,-3.11231 -1.67735,-3.11231l0.69441,-2.12067c0.48402,-0.8771 0.96804,-1.7542 1.45206,-2.6313c0,0 1.20789,-2.18884 3.39673,-0.98095c0.85747,0.47319 1.19367,1.09692 1.2854,1.68063c6.54769,0.96214 12.895,-0.17417 19.38733,-0.16168c0.19174,-0.49967 0.59745,-0.98896 1.38829,-1.32079c2.3053,-0.96727 3.27256,1.33803 3.27256,1.33803c0.35201,0.83896 0.70404,1.67792 1.05605,2.51688l0.22283,0.66882c0,0 0.75607,2.38293 -1.62686,3.139z" fill="#b56e6e" stroke="none" stroke-width="0.5" stroke-linecap="butt"/><path d="M175.65771,164.89161l-1.65472,3.71767" fill="none" stroke="#8a5454" stroke-width="2" stroke-linecap="round"/><path d="M212.63468,216.26495c2.81014,-0.43502 6.19196,0.53608 8.31352,0.90068c3.76207,0.64652 11.59052,6.09025 11.59052,6.09025" data-paper-data="{&quot;index&quot;:null}" fill="none" stroke="#8a5454" stroke-width="2" stroke-linecap="round"/><path d="M194.72832,263.28209c0.61315,-0.42253 1.32529,0.00746 1.32529,0.00746l0.99,1.07943c0.06682,0.67931 0.49103,1.42026 0.20047,2.03792c-2.09229,4.44781 -8.52593,-1.27127 -3.35243,-3.13728c0.27049,-0.09756 0.55171,-0.06513 0.83667,0.01247z" fill="#9e6060" stroke="none" stroke-width="0.5" stroke-linecap="butt"/><path d="M197.98226,265.31998c0,0 0.05389,2.28568 -1.43657,2.93381c-1.38516,0.60235 -3.37492,0.23321 -3.87161,-0.21571c-0.3467,-0.31336 -1.39199,-1.33937 -1.3205,-2.29883c0.09457,-1.26922 1.45447,-2.51527 2.19145,-2.75914c1.08084,-0.35764 2.64711,0.02967 2.64711,0.02967" fill="none" stroke="#8a5454" stroke-width="2" stroke-linecap="round"/><path d="M236.14064,232.46228c0,0 -4.77433,4.51432 -7.13801,6.36175c-1.93265,1.51054 -6.01308,3.91698 -6.01308,3.91698" data-paper-data="{&quot;index&quot;:null}" fill="none" stroke="#8a5454" stroke-width="2" stroke-linecap="round"/><path d="M236.3322,193.58885c2.96331,1.62894 -4.95636,-12.66928 -2.34657,-10.08974c2.47158,2.44294 3.54038,0.10098 6.47373,8.0635c2.19461,5.95723 2.13512,16.29553 2.53639,21.14125c0.70638,8.53036 -6.93826,19.66846 -8.1839,23.93135c-2.0061,6.86546 -4.51941,26.70509 -4.68048,33.71417c-0.14189,6.17486 -3.79805,12.94732 -9.592,16.74974c-7.25264,4.75972 -17.04649,6.68988 -23.95935,6.80859c-6.51178,0.11181 -18.0244,-3.25556 -25.38941,-7.52948c-6.3947,-3.71086 -10.46806,-10.88091 -11.74145,-16.39114c0,0 -3.94048,-29.25645 -5.87881,-33.29817v-0.00001c-2.94605,-6.14301 -7.06062,-11.46423 -7.77252,-13.61134c-2.19007,-6.60526 -3.18973,-16.34592 -2.24332,-21.64352c0.26336,-1.47415 -0.50134,-11.98148 4.77608,-17.87096c3.44907,-3.8491 -4.48539,13.35645 -0.34174,10.57327" fill="none" stroke="#724646" stroke-width="1.5" stroke-linecap="butt"/><path d="M215.74938,320.81372c0,0 -2.68361,-12.75548 -2.49398,-14.80217c0.22102,-2.38551 0.21658,-5.94787 0.21658,-8.30476c0,-2.14786 -2.52879,-4.94155 -2.75563,-8.42823c-0.37545,-5.771 -12.32871,-10.81631 -12.32871,-10.81631l30.30502,-1.62002c0,0 -0.00451,7.00578 -0.98306,14.24818c-0.52805,3.90821 -1.10239,7.61757 -1.53617,10.39974c-0.40717,2.61145 -0.69051,4.40602 -0.69551,4.78136c-0.02251,1.68898 -1.50294,14.1238 -1.50294,14.1238z" data-paper-data="{&quot;index&quot;:null}" fill="#b56e6e" stroke="#000000" stroke-width="2" stroke-linecap="butt"/><path d="M209.33508,363.20752c0.21407,-1.02483 0.89845,-4.04166 2.88187,-4.35629c1.48253,-0.23518 3.58196,-1.23145 5.77895,-0.57822c1.52018,0.45199 3.10664,2.48541 4.48737,2.85471c6.04583,1.6171 10.55393,4.80947 10.06914,7.13035c-0.36764,1.76001 -3.70355,3.65964 -7.83308,3.21579c-1.31599,-0.14144 -2.92481,-1.4586 -4.38588,-1.8494c-2.25139,-0.60219 -4.91746,-1.08556 -6.71589,-1.80601c-3.03101,-1.21422 -4.58673,-3.15432 -4.28247,-4.61093z" data-paper-data="{&quot;index&quot;:null}" fill="#b56e6e" stroke="#000000" stroke-width="2" stroke-linecap="butt"/><path d="M211.23159,359.59553c0,0 0.21185,-13.412 0.40148,-15.45869c0.22102,-2.38551 1.69799,-6.09377 1.69799,-8.45067c0,-2.14786 0.29932,-6.91112 0.07248,-10.39781c-0.37545,-5.771 0.6336,-10.15978 0.6336,-10.15978l10.13773,0.49546c0,0 -0.00451,7.00578 -0.98306,14.24818c-0.52805,3.90821 -1.10239,7.61757 -1.53617,10.39974c-0.40717,2.61145 -0.69051,4.40602 -0.69551,4.78136c-0.02251,1.68898 -1.50294,14.12379 -1.50294,14.12379z" data-paper-data="{&quot;index&quot;:null}" fill="#b56e6e" stroke="#000000" stroke-width="2" stroke-linecap="butt"/><path d="M211.36826,361.01541l0.54616,-1.84895c0.05602,-0.98208 0.11204,-1.96415 0.16806,-2.94622c0,0 0.14237,-2.49595 2.63832,-2.35357c0.83111,0.04741 1.36968,0.35578 1.71839,0.74606c2.06412,-0.10692 2.47423,2.04279 2.47423,2.04279c0.15788,0.82761 0.31576,1.65521 0.47364,2.48282l0.299,0.7619c0,0 0.83207,2.35747 -1.5254,3.18953c-0.98016,0.34595 -1.69664,0.14054 -2.19926,-0.21756c-0.36057,0.66985 -1.1839,1.63909 -2.82128,1.2027c-2.41567,-0.64382 -1.77185,-3.0595 -1.77185,-3.0595z" data-paper-data="{&quot;index&quot;:null}" fill="#b56e6e" stroke="none" stroke-width="0.5" stroke-linecap="butt"/><path d="M214.75343,319.62979l-0.03448,-1.78595c0.28418,-2.81466 0.48134,-5.56351 0.44595,-8.39292c0,0 -0.02957,-2.49982 2.47025,-2.5294c0.88703,-0.01049 1.46303,0.29748 1.83705,0.69925c0.38506,-0.2719 0.9126,-0.4455 1.63478,-0.39551c2.49403,0.17263 2.3214,2.66667 2.3214,2.66667l-0.04026,0.44453c0.06644,3.73654 0.20539,7.31988 -0.65066,10.96272c0,0 -0.5894,2.42953 -3.01893,1.84012c-0.90242,-0.21893 -1.38834,-0.69174 -1.64265,-1.19962c-0.21861,0.0624 -0.46573,0.10144 -0.74505,0.11023c-2.49876,0.07864 -2.57741,-2.42012 -2.57741,-2.42012z" data-paper-data="{&quot;index&quot;:null}" fill="#b56e6e" stroke="none" stroke-width="0.5" stroke-linecap="butt"/><path d="M218.22233,282.90918c0.06417,0.2803 0.09856,0.57663 0.09856,0.88313c0,1.69178 -1.04787,3.07362 -2.36653,3.16147l-4.0269,0.30906l-0.50372,0.42883c-0.71614,-0.03021 -3.57105,-0.14236 -5.66688,-0.25469c-0.78626,-0.00076 -1.65749,-0.02018 -2.64745,-0.05132l-2.83944,-0.06019c-1.36383,-0.02479 -2.46338,-1.43257 -2.46338,-3.16557c0,-0.47623 0.08303,-0.92789 0.23176,-1.33305c-1.46671,-0.02836 -2.97113,0.16727 -4.33875,-0.45132c-0.03907,-0.01767 -0.07794,-0.03582 -0.11665,-0.05443l-0.00435,0.03145l-2.61084,-0.57887c-1.19583,-0.23676 -2.11072,-1.54696 -2.11072,-3.12775c0,-1.66027 1.0092,-3.02204 2.29314,-3.15521c0.36749,-1.16924 1.26937,-1.99572 2.32368,-1.99572h4.66233v0.04162c0.07223,-0.01081 0.1446,-0.02069 0.21711,-0.02965c0.02989,-0.00369 2.20218,0.47726 4.43839,0.97507c-0.00082,-0.03329 -0.00123,-0.06671 -0.00123,-0.10024c0,-1.74847 1.11929,-3.1659 2.5,-3.1659c0.05694,0 0.11343,0.00241 0.16942,0.00716l2.92548,0.21889l-0.00284,0.0607l0.11892,-0.04856c4.08917,0.80885 8.41195,2.38367 12.14959,4.69217c0.04331,0.02675 0.08599,0.05503 0.12809,0.08468c-0.09279,-1.36761 0.11557,-2.80621 0.08095,-4.18754l0.16742,-0.35158l-0.12153,-0.03304l0.52576,-3.10156c0.19732,-1.292 1.01496,-2.30394 2.04476,-2.51893c0.40161,-1.06834 1.26198,-1.80675 2.25854,-1.80675c1.22123,0 2.23794,1.10889 2.45652,2.57494l0.66009,3.98453l-0.1809,0.04805c0.00242,0.18584 0.00774,0.37209 0.01524,0.55862c0.37136,1.33727 0.47882,2.69057 0.22111,4.25881c-0.00794,0.61003 -0.22012,1.10098 -0.33011,1.69702c-0.00686,0.03717 0.15262,0.1882 0.14543,0.22522l0.0175,0.00128l-1.1402,3.60866c-0.06669,1.67309 -0.20383,3.4214 -1.54158,3.4214c-0.2744,0 -0.53848,-0.05599 -0.78549,-0.15942c-1.94681,0.50504 -3.85262,-1.12115 -5.75317,-2.08902z" data-paper-data="{&quot;index&quot;:null}" fill="#b56e6e" stroke="none" stroke-width="0.5" stroke-linecap="butt"/><path d="M166.68274,320.22807c0,0 -1.48043,-12.43482 -1.50294,-14.1238c-0.005,-0.37534 -0.28834,-2.16991 -0.69551,-4.78136c-0.43378,-2.78217 -1.00812,-6.49153 -1.53617,-10.39974c-0.97855,-7.2424 -0.98306,-14.24818 -0.98306,-14.24818l30.30502,1.62002c0,0 -11.95326,5.04532 -12.32871,10.81631c-0.22684,3.48669 -2.75563,6.28037 -2.75563,8.42823c0,2.3569 -0.00444,5.91925 0.21658,8.30477c0.18963,2.04669 -2.49398,14.80216 -2.49398,14.80216z" data-paper-data="{&quot;index&quot;:null}" fill="#b56e6e" stroke="#000000" stroke-width="2" stroke-linecap="butt"/><path d="M181.32263,363.04029c0.30426,1.45661 -1.25146,3.39671 -4.28247,4.61093c-1.79843,0.72045 -4.4645,1.20382 -6.71589,1.80601c-1.46107,0.3908 -3.06989,1.70796 -4.38588,1.8494c-4.12953,0.44385 -7.46544,-1.45578 -7.83308,-3.21579c-0.48479,-2.32088 4.02331,-5.51325 10.06914,-7.13035c1.38073,-0.3693 2.96719,-2.40272 4.48737,-2.85471c2.19699,-0.65323 4.29642,0.34304 5.77895,0.57822c1.98342,0.31463 2.6678,3.33146 2.88187,4.35629z" data-paper-data="{&quot;index&quot;:null}" fill="#b56e6e" stroke="#000000" stroke-width="2" stroke-linecap="butt"/><path d="M171.20052,359.00987c0,0 -1.48043,-12.43481 -1.50294,-14.12379c-0.005,-0.37534 -0.28834,-2.16991 -0.69551,-4.78136c-0.43378,-2.78217 -1.00812,-6.49153 -1.53617,-10.39974c-0.97855,-7.2424 -0.98306,-14.24818 -0.98306,-14.24818l10.13773,-0.49546c0,0 1.00905,4.38879 0.6336,10.15978c-0.22684,3.48669 0.07248,8.24995 0.07248,10.39781c0,2.3569 1.47696,6.06516 1.69798,8.45067c0.18963,2.04669 0.40149,15.45869 0.40149,15.45869z" data-paper-data="{&quot;index&quot;:null}" fill="#b56e6e" stroke="#000000" stroke-width="2" stroke-linecap="butt"/><path d="M177.5176,363.90768c-1.63738,0.4364 -2.46071,-0.53285 -2.82128,-1.2027c-0.50262,0.35809 -1.2191,0.56351 -2.19926,0.21756c-2.35747,-0.83206 -1.5254,-3.18953 -1.5254,-3.18953l0.29899,-0.7619c0.15788,-0.82761 0.31576,-1.65521 0.47365,-2.48282c0,0 0.4101,-2.14971 2.47423,-2.04279c0.34871,-0.39028 0.88728,-0.69865 1.71839,-0.74606c2.49595,-0.14238 2.63832,2.35357 2.63832,2.35357c0.05602,0.98208 0.11204,1.96415 0.16806,2.94622l0.54616,1.84896c0,0 0.64382,2.41567 -1.77185,3.0595z" data-paper-data="{&quot;index&quot;:null}" fill="#b56e6e" stroke="none" stroke-width="0.5" stroke-linecap="butt"/><path d="M173.32687,321.88267c-0.27931,-0.00879 -0.52643,-0.04782 -0.74505,-0.11023c-0.25431,0.50788 -0.74022,0.98069 -1.64265,1.19962c-2.42953,0.5894 -3.01893,-1.84012 -3.01893,-1.84012c-0.85605,-3.64283 -0.7171,-7.22618 -0.65066,-10.96272l-0.04026,-0.44453c0,0 -0.17264,-2.49403 2.3214,-2.66667c0.72218,-0.04999 1.24972,0.12361 1.63478,0.39551c0.37402,-0.40177 0.95002,-0.70974 1.83705,-0.69925c2.49982,0.02958 2.47025,2.5294 2.47025,2.5294c-0.03539,2.82941 0.16177,5.57826 0.44595,8.39292l-0.03448,1.78595c0,0 -0.07864,2.49876 -2.57741,2.42012z" data-paper-data="{&quot;index&quot;:null}" fill="#b56e6e" stroke="none" stroke-width="0.5" stroke-linecap="butt"/><path d="M171.13823,282.19438c-1.90054,0.96787 0.75862,3.04871 -1.1882,2.54367c-0.24702,0.10343 -5.07606,-0.29523 -5.35046,-0.29523c-1.33775,0 0.53448,-4.05904 0.46779,-5.73213l-1.92489,-0.61834l-0.38144,-0.67019c-0.00719,-0.03702 -0.83997,-0.0848 -0.84683,-0.12197c-0.10999,-0.59605 -0.80503,-0.84916 -0.81296,-1.4592c-0.25771,-1.56824 0.49912,-3.27329 0.87048,-4.61055c0.0075,-0.18653 0.01282,-0.37278 0.01524,-0.55862l-0.1809,-0.04805l0.66009,-3.98453c0.21858,-1.46605 1.2353,-2.57494 2.45652,-2.57494c0.99656,0 1.85693,0.73841 2.25854,1.80675c1.02981,0.21499 1.84744,1.22693 2.04476,2.51893l0.52576,3.10156l-0.12153,0.03303l0.16742,0.35158c-0.03462,1.38133 0.17374,2.81993 0.08095,4.18754c0.0421,-0.02965 0.08478,-0.05793 0.12809,-0.08468c3.73764,-2.30849 8.06042,-3.88332 12.14959,-4.69217l0.11892,0.04856l-0.00284,-0.0607l2.92548,-0.21889c0.05599,-0.00475 0.11248,-0.00716 0.16942,-0.00716c1.38071,0 2.5,1.41742 2.5,3.1659c0,0.03353 -0.00041,0.06695 -0.00123,0.10024c2.23621,-0.49782 4.4085,-0.97876 4.43839,-0.97507c0.07251,0.00896 0.14488,0.01884 0.21711,0.02965v-0.04161h4.66233c1.0543,0 1.95618,0.82647 2.32368,1.99571c1.28394,0.13318 2.29314,1.49494 2.29314,3.15521c0,1.58079 -0.9149,2.89099 -2.11072,3.12775l-2.61084,0.57887l-0.00435,-0.03145c-0.0387,0.01861 -0.07757,0.03676 -0.11665,0.05443c-1.36763,0.6186 -2.87204,0.42296 -4.33875,0.45132c0.14873,0.40516 0.23176,0.85682 0.23176,1.33305c0,1.733 -1.09955,3.14078 -2.46338,3.16557l-2.83944,0.0602c-0.98996,0.03114 -1.86119,0.05056 -2.64745,0.05131c-2.09583,0.11233 -4.95074,0.22448 -5.66688,0.25469l-0.50372,-0.42883l-4.0269,-0.30906c-1.31866,-0.08785 -2.36653,-1.46969 -2.36653,-3.16146c0,-0.3065 0.03439,-0.60283 0.09856,-0.88313z" data-paper-data="{&quot;index&quot;:null}" fill="#b56e6e" stroke="none" stroke-width="0.5" stroke-linecap="butt"/><path d="M210.70626,168.92033l-1.98853,-3.95917" fill="none" stroke="#8a5454" stroke-width="2" stroke-linecap="round"/><path d="" fill="#629236" stroke="#4a6d28" stroke-width="1.5" stroke-linecap="butt"/><path d="M164.17742,299.67993c0,0 -1.4479,-6.35831 -2.14239,-10.2952c-0.38495,-2.18218 -0.07121,-7.30738 -0.84958,-9.88207c-0.27755,-0.91809 -0.48467,-2.14556 -0.96836,-3.62263c-0.21942,-0.67006 -0.57872,-1.35694 -0.76295,-1.9908c-0.43242,-1.48777 -0.84553,-2.81973 -0.84553,-2.81973c0,0 9.31827,1.70464 19.32321,2.74992c6.07493,0.63468 12.34707,1.08176 16.90106,1.06334c4.43554,-0.01794 10.8464,-0.14228 16.71651,-0.79925c10.11884,-1.13249 19.59708,-3.40152 19.59708,-3.40152c0,0 0.10592,3.47422 -0.68421,6.5291c-0.3958,1.53028 -1.61009,3.54759 -1.77772,4.65078c-0.25873,1.70271 -0.32576,6.37992 -0.91842,10.67451c-0.63766,4.62066 -1.79367,8.81302 -1.79367,8.81302c0,0 -1.18782,1.00486 -2.9416,1.56792c-0.86322,0.27714 -1.9502,0.23605 -2.93082,0.32814c-2.85884,0.26848 -5.79199,-0.79561 -5.96216,-1.02159c-1.57866,-2.09641 -2.21948,-7.71336 -3.53824,-8.00667c-1.65863,-0.36891 -8.49565,1.62355 -15.44259,1.35268c-6.25984,-0.24408 -12.49188,-1.94148 -14.44001,-2.08254c-1.6775,-0.12146 -2.40026,0.72863 -2.71093,3.00204c-0.28913,2.11581 -0.50847,4.33873 -1.6299,4.93761c-4.17767,2.23102 -12.19877,-1.74707 -12.19877,-1.74707z" fill="#4ab851" stroke="#000000" stroke-width="2" stroke-linecap="butt"/><g fill="#b56e6e" stroke-linecap="butt"><g><path d="M231.02529,185.87014l4.07017,-7.1499c0,0 2.7193,2.87147 5.14526,6.34307c1.94521,2.78365 3.70184,5.95315 3.71679,8.33757c0.02757,4.39761 1.14622,14.37829 0.69862,24.64442c-0.55888,12.81862 -2.60369,22.26388 -2.60369,22.26388l-8.06217,-1.79711c0,0 -2.75408,-16.81106 -2.90588,-24.53916c-0.1706,-8.68519 -0.0591,-28.10278 -0.0591,-28.10278z" stroke="#000000" stroke-width="2"/><path d="M232.5542,256.14067c-0.1518,-7.72809 0.53162,-26.31569 0.53162,-26.31569l9.39377,-0.43097c0,0 2.41414,9.35766 3.47596,22.14445c0.46806,5.6366 -0.89529,14.33652 -2.18711,22.47396c-0.74363,4.68426 2.0724,10.65062 1.97184,12.72245c-0.04213,0.86802 -4.02385,0.73398 -4.02385,0.73398l-7.67806,1.27996c0,0 1.44491,-6.52713 1.03334,-10.55276c-0.68652,-6.715 -2.41084,-16.62544 -2.5175,-22.05538z" data-paper-data="{&quot;index&quot;:null}" stroke="#000000" stroke-width="2"/><path d="M240.78944,234.15733c-0.16002,0.35385 -0.33069,0.69987 -0.5218,1.0122c-0.32321,0.97907 -1.23614,1.69421 -2.32555,1.71561c-1.31485,0.02583 -2.41251,-0.96825 -2.5373,-2.25563l-0.04859,-0.44971c-0.3408,-0.48943 -0.65971,-0.98804 -0.96988,-1.41881c-0.65046,-0.90333 -0.60361,-2.143 -0.88757,-3.21931c-0.34323,-1.30095 -0.24003,-4.3716 -0.4389,-6.70442c-0.15171,-1.77953 -0.85298,-2.91577 0.14579,-3.77338c2.99306,-2.57003 7.10545,-0.92828 8.89709,1.83662c0.64764,0.99945 0.39899,2.3494 0.53498,3.53256c0.20828,1.81205 0.12704,3.65266 -0.00392,5.47192l-0.32026,2.24282c0,0 -0.22306,1.53236 -1.52408,2.00952z" stroke="none" stroke-width="0.5"/></g><path d="M245.76244,286.9052c0,0 1.78385,3.81582 3.77624,10.34866c0.67012,2.19721 4.4221,17.7333 4.5246,18.8406c0.07277,0.78621 -1.33516,2.35924 -2.39373,1.49349c-0.98326,-0.80416 -2.87695,-3.98606 -3.87389,-5.89199c-1.04214,-1.99235 -1.16619,-2.69349 -1.16619,-2.69349c0,0 2.65631,15.02292 -0.06893,15.73998c-0.33263,0.08753 -1.31342,0.03318 -1.75037,-1.29136c-0.37106,-1.12482 -1.7209,-11.36867 -2.6196,-13.99829c-0.67103,-1.96347 -0.23041,3.04638 -0.58447,7.63239c-0.24181,3.13217 -1.08301,6.00781 -2.00058,6.56103c-0.44039,0.26552 -1.7412,0.36662 -2.3196,-1.59278c-0.33758,-1.14361 0.00207,-3.91134 -0.23416,-5.32667c-0.56107,-3.36162 -0.54053,-7.02865 -1.22892,-7.96569c-0.33589,-0.45719 -3.40913,13.78397 -4.06945,13.88494c-0.29495,0.04511 -1.81912,-0.68625 -2.04799,-2.71057c-0.26685,-2.36031 0.35794,-6.49329 0.5432,-9.64332c0.21266,-3.61592 0.53175,-7.05029 -0.05046,-8.96388c-0.39771,-1.30717 -1.50046,1.11013 -2.67794,2.33565c-1.85192,1.92747 -5.89188,3.96934 -4.98633,0.71791c0.42476,-1.52513 4.43398,-10.21114 5.03099,-11.38614c1.31065,-2.57959 3.0607,-4.63166 5.05852,-6.24945c1.86832,-1.51291 3.23667,-5.32751 3.23667,-5.32751l9.90237,5.48647z" data-paper-data="{&quot;index&quot;:null}" stroke="#000000" stroke-width="2"/><path d="M236.40656,292.89491c-2.47301,-0.36639 -2.10662,-2.8394 -2.10662,-2.8394l0.63802,-2.74526l0.72691,-2.0694c0.17331,-0.64241 0.3625,-1.41796 0.92704,-1.74545l0.36578,-1.17627c0.18905,-0.66219 0.64485,-1.21387 1.24584,-1.52866c-0.35269,-1.11329 -0.68361,-2.2436 -0.9354,-3.44311c0,0 -0.50514,-2.44843 1.94329,-2.95358c2.44843,-0.50515 2.95357,1.94329 2.95357,1.94329c0.62297,3.08169 1.67242,6.10105 2.40416,9.15666l-1.61753,5.04285c-0.87544,-0.59904 -1.75088,-1.19809 -2.62632,-1.79714l-0.06315,0.24534c-0.13858,0.59371 -0.4892,1.10755 -0.96907,1.45541l-0.04713,0.34809c0,0 -0.36638,2.47301 -2.83939,2.10662z" stroke="none" stroke-width="0.5"/></g><g data-paper-data="{&quot;index&quot;:null}" fill="#b56e6e" stroke-linecap="butt"><g><path d="M153.38813,213.90935c-0.00742,7.72959 -2.44705,24.58914 -2.44705,24.58914l-8.02719,1.94738c0,0 -2.22086,-9.40541 -3.01906,-22.21136c-0.45556,-7.30867 -0.11315,-14.48727 0.10153,-19.60097c0.08657,-2.06216 0.63133,-6.85268 1.53003,-8.6044c1.37247,-2.67517 3.67437,-6.27638 6.5239,-8.98088c4.30612,-4.08695 17.55556,-11.03366 17.61676,-11.01251c1.60111,0.55333 -12.74469,15.7746 -12.74469,15.7746c0,0 0.47414,19.41212 0.46579,28.09898z" stroke="#000000" stroke-width="2"/><path d="M150.60103,278.19576c-0.3363,4.0326 1.23026,10.53162 1.23026,10.53162l-7.70064,-1.13633c0,0 -3.97853,0.20838 -4.03686,-0.6587c-0.13924,-2.0696 2.56487,-8.08751 1.73388,-12.75706c-1.44358,-8.11189 -2.96919,-16.78483 -2.60648,-22.42919c0.8228,-12.80439 3.06176,-22.20551 3.06176,-22.20551l9.40018,0.25546c0,0 1.03046,18.57158 1.02303,26.30117c-0.00522,5.43098 -1.54414,15.37189 -2.10512,22.09855z" data-paper-data="{&quot;index&quot;:null}" stroke="#000000" stroke-width="2"/><path d="M144.06176,234.27149c-1.30971,-0.45278 -1.56135,-1.9807 -1.56135,-1.9807l-0.36209,-2.23645c-0.16492,-1.81651 -0.28052,-3.65527 -0.10612,-5.47089c0.11387,-1.18549 -0.15996,-2.53055 0.46891,-3.54194c1.73969,-2.79788 5.82071,-4.51615 8.86125,-2.00247c1.0146,0.83881 0.33468,1.98794 0.21623,3.77c-0.15526,2.33614 0.00528,5.40432 -0.3136,6.71146c-0.26381,1.08143 -0.19382,2.32 -0.82729,3.23533c-0.30207,0.43648 -0.61161,0.94096 -0.94321,1.43667l-0.04018,0.45054c-0.10072,1.28949 -1.17963,2.30388 -2.49473,2.30263c-1.08962,-0.00105 -2.01576,-0.69902 -2.35719,-1.67188c-0.19691,-0.30871 -0.37401,-0.65149 -0.54061,-1.00229z" stroke="none" stroke-width="0.5"/></g><path d="M140.07482,287.10303l9.79818,-5.67047c0,0 1.43936,3.78838 3.33561,5.26613c2.02769,1.58019 3.81575,3.59922 5.17436,6.15388c0.61885,1.16364 4.78959,9.77326 5.24276,11.29019c0.96612,3.23395 -3.11126,1.26789 -4.99887,-0.62466c-1.20016,-1.20331 -2.34788,-3.5996 -2.7211,-2.28523c-0.54636,1.92413 -0.16318,5.35194 0.11698,8.96326c0.24406,3.14602 0.94593,7.2666 0.72321,9.63149c-0.19102,2.02824 -1.70126,2.78794 -1.997,2.74835c-0.66208,-0.08862 -4.00078,-14.2699 -4.32807,-13.80652c-0.67078,0.94973 -0.58173,4.61574 -1.07993,7.98725c-0.20975,1.4195 0.18153,4.1804 -0.13463,5.33011c-0.5417,1.96987 -1.84417,1.89307 -2.28945,1.63584c-0.92774,-0.53599 -1.8225,-3.39541 -2.12276,-6.52253c-0.43964,-4.5786 -0.09267,-9.5958 -0.72691,-7.62014c-0.84943,2.64596 -2.00771,12.91322 -2.35769,14.04478c-0.41213,1.33248 -1.39174,1.40514 -1.72595,1.32384c-2.73815,-0.66604 -0.3629,-15.73595 -0.3629,-15.73595c0,0 -0.11093,0.70333 -1.11568,2.7148c-0.96116,1.92422 -2.79509,5.14094 -3.76316,5.96332c-1.04223,0.88537 -2.47929,-0.66109 -2.42121,-1.44852c0.0818,-1.10902 3.54296,-16.71247 4.17192,-18.92182c1.87003,-6.5689 3.5823,-10.41738 3.5823,-10.41738z" data-paper-data="{&quot;index&quot;:null}" stroke="#000000" stroke-width="2"/><path d="M149.54093,292.91696c-2.46573,0.41252 -2.87823,-2.05321 -2.87823,-2.05321l-0.05362,-0.34716c-0.48628,-0.33884 -0.84645,-0.84605 -0.99609,-1.43706l-0.06772,-0.24411c-0.86411,0.61531 -1.72819,1.23058 -2.5923,1.84588l-1.71143,-5.01176c0.67454,-3.06874 1.66742,-6.10718 2.23272,-9.19997c0,0 0.45932,-2.45745 2.91676,-1.99813c2.45744,0.45933 1.99812,2.91678 1.99812,2.91678c-0.22934,1.20401 -0.53909,2.3403 -0.87092,3.45998c0.60677,0.30352 1.07279,0.84658 1.27417,1.50512l0.38769,1.16923c0.57056,0.31689 0.7742,1.08878 0.95948,1.72783l0.76543,2.05547l0.68918,2.73286c0,0 0.41251,2.46573 -2.05322,2.87824z" stroke="none" stroke-width="0.5"/></g><path d="M225.22918,186.11586c0.72933,-0.73256 1.19942,-2.11179 2.09149,-2.44546l-0.17934,-0.59923c0.56066,-0.60495 0.93529,-1.61046 1.52813,-2.14905c0.21683,-0.94327 0.96734,-1.68274 1.91665,-1.88351c0.08181,-0.05445 0.17054,-0.09987 0.26753,-0.13453c0.12599,-0.04503 0.25902,-0.08069 0.3975,-0.10735c0.53086,-0.2208 0.21933,0.53303 0.6846,0.8141c0.71994,0.13802 0.9961,-0.45169 1.65096,-0.54091c0.8579,-0.11688 2.43022,1.66469 2.33712,2.59479c0.86207,0.72908 1.45752,1.85013 1.37466,2.3932c0.10782,0.27929 0.16694,0.58279 0.16694,0.90011c0,0.07456 -0.00326,0.14836 -0.00966,0.22126c0.14774,0.21476 0.27007,0.42716 0.36263,0.6347c0.41963,0.94083 0.00403,2.16116 -0.75904,2.92547c0.67449,0.86875 0.90976,1.74959 0.38594,2.55547c-1.87331,2.88203 -8.24025,-1.55689 -9.79572,-2.33803c-0.41786,-0.20985 -2.10717,-1.03993 -2.102,-1.61922z" fill="#b56e6e" stroke="none" stroke-width="0.5" stroke-linecap="butt"/><path d="M149.2419,180.95057c1.27091,-0.57413 2.06856,-1.87217 3.06208,-2.85082c1.33426,-1.31428 3.093,-2.11517 4.58789,-3.24339l0.30291,-0.16839l0.10621,-0.19959c0.09948,-0.06536 0.001,-0.06761 0.60058,-0.47379c0.99207,-0.67207 2.82982,-1.64528 4.32272,-2.37232c1.39604,-1.02463 2.86499,-1.87088 4.58861,-2.71141l-0.02408,-0.01809c0,0 2.0583,-1.41894 3.47724,0.63935c1.41894,2.0583 -0.63935,3.47724 -0.63935,3.47724l-0.62877,0.39877c-0.20474,0.09906 -0.40437,0.19741 -0.59947,0.29561c-0.2865,0.90526 -1.10224,1.43192 -1.10224,1.43192c-1.40346,0.90591 -2.87153,1.73971 -4.31457,2.60748c-0.00053,0.01401 -0.0008,0.02762 -0.0008,0.04083c0,0.73224 -0.31481,1.39095 -0.81646,1.84818l-2.03975,1.87178l-0.08577,-0.09347c-0.08369,0.12215 -0.17069,0.24225 -0.2614,0.36005c-0.2463,0.31984 -0.64061,0.43351 -1.05701,0.52363l-1.91544,1.08993c-0.00189,0.00235 -0.0024,0.00082 -0.00167,-0.00419c-0.11525,0.35071 -0.22095,0.66541 -0.25668,0.76644c0.45701,0.45301 0.74007,1.08124 0.74007,1.77557c0,1.10352 -0.71498,2.04005 -1.70697,2.3716c0.24456,0.44402 0.35707,1.03325 0.16003,1.80627c-0.61749,2.42254 -3.04003,1.80505 -3.04003,1.80505l0.23319,-0.0021c-0.09669,-0.00304 -0.19337,-0.00633 -0.29004,-0.00987c-0.61702,1.59409 -2.49582,1.45426 -2.49582,1.45426l-4.73918,-0.35273c0,0 -2.4931,-0.18556 -2.30754,-2.67866c0.08964,-1.20431 0.71772,-1.78357 1.34314,-2.06063c0.48332,-2.04668 2.68675,-1.80678 2.68675,-1.80678c0.03001,0.00328 0.06002,0.00656 0.09003,0.00983c-0.00112,-0.0308 -0.00169,-0.06174 -0.00169,-0.09282c0,-0.05151 0.00156,-0.10265 0.00463,-0.15338c-0.0013,-0.1397 0.00718,-0.28757 0.02677,-0.44407c0.09991,-0.79809 0.42444,-1.30727 0.81872,-1.63083c-0.95433,-2.12818 1.17318,-3.20645 1.17318,-3.20645zM157.13966,183.39007c0.01115,-0.0406 0.01822,-0.06973 0.0203,-0.08464c0.00598,-0.00774 -0.00245,0.02516 -0.0203,0.08464z" fill="#b56e6e" stroke="none" stroke-width="0.5" stroke-linecap="butt"/></g></g></svg>