<svg version="1.1" xmlns="http://www.w3.org/2000/svg" xmlns:xlink="http://www.w3.org/1999/xlink" width="78.11698" height="73.8569" viewBox="0,0,78.11698,73.8569"><g transform="translate(-200.94151,-143.07155)"><g data-paper-data="{&quot;isPaintingLayer&quot;:true}" fill-rule="nonzero" stroke-width="2.5" stroke-linecap="butt" stroke-linejoin="miter" stroke-miterlimit="10" stroke-dasharray="" stroke-dashoffset="0" style="mix-blend-mode: normal"><path d="M277.80849,180c0,19.70466 -16.92744,35.67845 -37.80849,35.67845c-20.88105,0 -37.80849,-15.97379 -37.80849,-35.67845c0,-19.70466 16.92744,-35.67845 37.80849,-35.67845c20.88105,0 37.80849,15.97379 37.80849,35.67845z" fill="#66ccff" stroke="#468caf"/><path d="M218.79321,198.18928c0,0 -4.02591,-2.64981 -5.72524,-6.0938c-1.87606,-3.80215 -2.58234,-8.63482 -2.58234,-11.77817c0,-3.35856 1.09978,-9.55301 3.04458,-13.61659c1.60691,-3.35757 5.62691,-4.9609 6.64521,-4.9609c1.00271,0 3.16518,0 4.58927,0c0.79822,0 0.89956,1.05111 0.22081,2.70563c-1.8349,4.47279 -5.23257,13.35544 -5.23257,17.80255c0,3.79934 2.96596,9.69492 5.1786,12.98128c0.54246,0.80571 5.21883,-4.42057 6.11027,-2.45347c1.24806,2.75402 -1.99716,12.19809 -3.51849,12.28057c-1.23697,0.06706 -11.52551,-2.16898 -13.4259,-3.86295c-1.37256,-1.22347 4.6958,-3.00415 4.6958,-3.00415z" fill="#ffffff" stroke="#468caf"/><path d="M261.25409,167.0814c0,0 4.02591,2.64981 5.72524,6.0938c1.87606,3.80215 2.58234,8.63481 2.58234,11.77817c0,3.35855 -1.09978,9.55301 -3.04458,13.61659c-1.60691,3.35757 -5.62691,4.9609 -6.64521,4.9609c-1.00271,0 -3.16518,0 -4.58927,0c-0.79822,0 -0.89955,-1.05112 -0.22082,-2.70563c1.8349,-4.47279 5.23257,-13.35545 5.23257,-17.80255c0,-3.79934 -2.96596,-9.69492 -5.1786,-12.98128c-0.54246,-0.8057 -5.21884,4.42057 -6.11028,2.45347c-1.24806,-2.75403 1.99716,-12.19808 3.51849,-12.28056c1.23697,-0.06707 11.5255,2.16898 13.42589,3.86295c1.37255,1.22347 -4.6958,3.00415 -4.6958,3.00415z" data-paper-data="{&quot;index&quot;:null}" fill="#ffffff" stroke="#468caf"/></g></g></svg>