<svg version="1.1" xmlns="http://www.w3.org/2000/svg" xmlns:xlink="http://www.w3.org/1999/xlink" width="53.89989" height="37.85491" viewBox="0,0,53.89989,37.85491"><g transform="translate(-218.41811,-166.484)"><g data-paper-data="{&quot;isPaintingLayer&quot;:true}" fill-rule="nonzero" stroke="none" stroke-width="1" stroke-linecap="butt" stroke-linejoin="miter" stroke-miterlimit="10" stroke-dasharray="" stroke-dashoffset="0" style="mix-blend-mode: normal"><path d="M254.343,184.86c-4.077,2.26 -9.442,4.794 -14.532,7.561v-15.165c4.837,2.535 9.569,4.963 14.511,7.604z" fill="#ffffff"/><path d="M240.741,204.292c-10.265,-0.189 -13.771,-0.359 -15.926,-0.803c-1.458,-0.295 -2.725,-0.95 -3.654,-1.9c-0.718,-0.719 -1.289,-1.816 -1.732,-3.338c-0.38,-1.268 -0.528,-2.323 -0.739,-4.9c-0.323,-5.816 -0.4,-10.571 0,-15.884c0.33,-2.934 0.49,-6.417 2.682,-8.449c1.035,-0.951 2.239,-1.563 3.591,-1.816c2.112,-0.401 11.11,-0.718 20.425,-0.718c9.294,0 18.312,0.317 20.426,0.718c1.689,0.317 3.273,1.267 4.203,2.492c2,3.146 2.035,7.058 2.238,10.118c0.084,1.458 0.084,9.737 0,11.195c-0.316,4.836 -0.57,6.547 -1.288,8.321c-0.444,1.12 -0.823,1.711 -1.479,2.366c-1.02884,1.00796 -2.34044,1.67841 -3.76,1.922c-8.883,0.668 -16.426,0.813 -24.987,0.676zM254.344,184.86c-4.942,-2.641 -9.674,-5.09 -14.511,-7.625v15.166c5.09,-2.767 10.456,-5.302 14.532,-7.562z" fill="#f12424"/></g></g></svg>